<?xml version="1.0" standalone="no"?>
<!DOCTYPE svg PUBLIC "-//W3C//DTD SVG 20010904//EN"
 "http://www.w3.org/TR/2001/REC-SVG-20010904/DTD/svg10.dtd">
<svg version="1.0" xmlns="http://www.w3.org/2000/svg"
 width="1552.000000pt" height="1552.000000pt" viewBox="0 0 1552.000000 1552.000000"
 preserveAspectRatio="xMidYMid meet">
<metadata>
Created by potrace 1.14, written by Peter Selinger 2001-2017
</metadata>
<g transform="translate(0.000000,1552.000000) scale(0.100000,-0.100000)"
fill="#000000" stroke="none">
<path d="M3660 14203 c-277 -190 -644 -487 -646 -523 -1 -10 -4 -25 -7 -34 -4
-9 -1 -16 6 -16 7 0 3 -7 -8 -16 -17 -13 -18 -17 -6 -36 10 -16 10 -23 2 -26
-14 -5 -15 -39 -1 -47 10 -6 6 -52 -5 -63 -3 -3 4 -16 16 -28 25 -26 19 -54
-10 -54 -25 0 -34 -15 -33 -53 1 -37 -24 -67 -32 -40 -5 15 -18 18 -68 19 -35
1 -110 4 -168 8 l-105 7 -41 -38 c-39 -37 -166 -176 -288 -316 -766 -880
-1336 -1959 -1640 -3104 -44 -167 -109 -450 -122 -530 l-7 -43 34 17 c19 10
51 18 73 19 21 1 43 7 49 13 6 6 28 11 50 11 23 0 69 14 114 35 42 19 82 35
89 35 8 0 44 16 81 35 36 20 72 34 79 31 7 -3 16 4 19 15 7 20 50 43 64 35 11
-7 183 29 211 44 14 7 44 27 67 44 36 27 42 36 41 64 -2 23 3 37 16 44 13 7
16 17 11 38 -5 24 -3 29 15 32 28 4 28 20 -1 35 -13 7 -19 13 -14 14 37 4 54
6 83 7 17 1 32 7 32 12 0 12 -40 71 -55 82 -6 4 -2 13 10 22 27 21 32 20 39
-9 4 -14 11 -25 16 -25 6 0 10 -7 10 -15 0 -10 10 -15 30 -15 17 0 30 -4 30
-10 0 -5 -4 -10 -10 -10 -16 0 -11 -50 5 -57 24 -9 31 5 10 21 -14 10 -15 15
-5 21 8 5 18 2 25 -8 7 -10 19 -17 28 -17 23 0 30 -17 16 -41 -10 -20 -9 -21
7 -14 11 4 33 8 49 9 24 1 31 6 33 25 2 13 -2 35 -9 47 -13 25 -8 41 10 30 6
-4 8 -13 4 -21 -3 -8 0 -15 6 -15 6 0 11 7 11 15 0 12 4 13 19 5 25 -13 53
-14 32 -1 -19 12 -6 41 19 41 11 0 29 -5 39 -12 25 -15 51 4 51 37 0 18 -4 22
-19 18 -15 -4 -20 2 -25 30 -4 19 -12 34 -19 33 -6 0 -13 4 -14 9 -1 6 7 9 17
7 15 -3 20 3 20 21 0 36 34 62 79 58 24 -1 42 3 50 13 7 8 19 12 28 9 11 -4
14 -2 9 8 -3 8 -9 22 -12 32 -7 19 -24 23 -24 5 0 -6 -2 -9 -5 -6 -8 8 16 60
37 81 16 16 18 16 18 1 0 -10 5 -14 15 -10 19 7 19 -8 0 -28 -23 -22 -19 -39
8 -32 12 3 38 6 57 6 31 1 32 2 13 10 -17 7 -23 18 -23 40 0 28 2 30 15 16 11
-11 26 -13 48 -9 41 8 41 7 11 23 -22 12 -27 12 -34 0 -14 -22 -13 15 0 41 14
25 40 25 40 -1 0 -12 7 -20 16 -20 15 0 15 2 0 25 -22 33 -20 55 4 55 11 0 23
6 26 14 7 19 -13 56 -31 56 -7 0 -16 4 -19 9 -5 8 7 82 20 129 2 7 4 16 6 20
1 4 8 13 15 20 16 17 17 52 1 52 -9 0 -9 3 0 12 17 17 15 45 -5 57 -10 6 -12
11 -5 11 6 0 12 8 12 18 0 11 7 33 16 50 19 40 54 44 54 7 0 -25 14 -33 25
-15 3 6 -1 17 -9 26 -9 8 -16 22 -16 30 0 8 -5 14 -12 14 -7 0 -3 8 9 17 20
16 20 17 1 50 -23 38 -39 43 -35 11 1 -18 -3 -23 -18 -21 -11 1 -24 -5 -28
-13 -12 -20 -27 -17 -27 6 0 11 5 20 10 20 6 0 10 8 10 18 0 10 7 27 15 38 21
28 19 47 -4 39 -25 -8 -39 15 -17 27 9 5 16 18 16 28 0 14 7 20 22 20 20 0 20
1 4 19 -13 14 -14 21 -6 26 8 5 1 17 -21 36 -19 16 -36 29 -39 29 -11 0 -37
72 -39 108 -1 18 -21 15 -21 -4 0 -16 -28 -49 -36 -42 -2 3 2 22 10 44 9 27
19 38 31 37 19 -1 45 19 45 35 0 5 9 12 20 15 13 3 20 14 20 29 0 17 3 19 9 9
7 -11 10 -9 16 8 5 15 1 29 -11 42 -10 11 -19 30 -21 42 -3 21 -23 42 -46 50
-12 4 -11 87 2 100 12 12 61 -3 61 -19 0 -8 -9 -14 -19 -14 -26 0 -37 -18 -17
-26 28 -11 65 5 78 34 7 15 23 28 36 30 26 4 27 9 8 52 -8 20 -16 28 -20 21
-9 -14 -36 -15 -36 -1 0 6 6 10 14 10 18 0 38 88 30 130 -5 23 -3 30 10 30 9
0 16 5 16 11 0 5 -4 7 -10 4 -6 -4 -10 7 -10 24 0 28 -3 31 -31 31 -41 0 -65
28 -40 47 9 7 11 13 4 13 -6 0 -18 7 -27 15 -13 14 -20 13 -65 -4 -42 -17 -50
-18 -55 -6 -4 11 2 15 24 15 17 0 30 5 30 11 0 14 -26 39 -40 39 -18 0 -42
-29 -34 -41 4 -7 1 -10 -7 -7 -21 7 -19 51 2 66 18 13 18 14 -1 34 -29 31 -25
63 9 87 21 15 31 18 34 9 3 -11 9 -11 26 0 12 7 21 8 21 2 0 -5 9 -14 20 -20
16 -9 18 -8 14 5 -5 11 3 19 25 28 22 8 31 18 31 34 0 16 6 23 19 23 16 0 17
-6 13 -50 -3 -33 -1 -50 7 -50 6 0 11 17 11 39 0 22 4 42 9 45 4 3 6 -6 3 -19
-3 -21 -1 -24 12 -19 10 4 15 13 12 20 -3 8 -1 14 4 14 6 0 10 11 10 25 0 14
4 25 10 25 5 0 23 14 38 30 23 24 38 30 70 30 46 0 79 10 64 19 -6 3 -13 18
-17 33 -5 21 -2 29 14 38 19 10 21 8 21 -16 0 -22 2 -25 15 -14 18 15 19 42 3
58 -9 9 -9 12 2 12 11 1 11 3 -2 11 -29 16 -21 38 20 57 20 9 46 27 57 39 11
13 30 23 41 23 18 0 21 -7 22 -57 2 -63 -6 -73 -53 -73 l-30 0 29 -15 c37 -19
60 -19 52 0 -4 10 1 15 14 15 13 0 20 -7 20 -20 0 -11 11 -27 25 -36 22 -14
24 -22 21 -63 -2 -25 -9 -59 -15 -74 -15 -38 -14 -64 3 -74 7 -4 15 -20 18
-35 3 -15 2 -25 -2 -23 -10 6 -20 -20 -20 -49 0 -12 -7 -31 -15 -42 -19 -25
-19 -39 0 -58 13 -13 13 -18 -3 -45 -14 -25 -15 -34 -4 -51 17 -27 15 -39 -8
-58 -11 -10 -23 -34 -27 -54 -5 -33 -3 -38 13 -38 11 0 30 -3 44 -6 18 -4 21
-3 11 4 -14 10 -9 44 6 40 4 -1 18 1 30 6 12 4 31 2 43 -4 21 -11 25 -4 14 24
-3 9 -17 16 -31 16 -35 0 -24 23 18 36 19 6 35 19 37 28 2 10 13 16 28 16 26
0 54 20 54 39 0 6 -11 13 -25 17 -28 7 -32 19 -9 28 26 10 56 7 48 -5 -4 -8 0
-9 15 -4 15 5 21 2 21 -9 0 -9 -4 -16 -10 -16 -5 0 -10 -9 -10 -20 0 -11 5
-20 12 -20 6 0 3 -9 -8 -21 -17 -19 -18 -21 -1 -30 13 -8 17 -23 17 -69 0 -49
3 -58 15 -54 19 8 19 -13 0 -50 -17 -32 -16 -34 17 -50 31 -16 34 -44 8 -68
-15 -14 -18 -24 -11 -31 11 -11 -13 -42 -27 -33 -5 3 -6 -8 -4 -25 2 -16 10
-29 18 -29 12 0 12 -6 -1 -37 -17 -41 -14 -63 10 -63 12 0 14 -4 6 -19 -7 -13
-7 -29 0 -50 6 -17 8 -39 5 -47 -4 -9 -1 -22 5 -30 7 -9 7 -19 -1 -34 -7 -13
-9 -33 -4 -48 14 -53 -8 -98 -42 -85 -12 4 -13 0 -7 -23 4 -16 7 -39 8 -51 0
-16 6 -23 18 -23 16 0 18 -5 12 -42 -9 -55 -13 -61 -36 -55 -22 6 -25 -6 -5
-22 10 -9 16 -8 26 4 7 8 19 15 26 15 16 0 19 -36 4 -45 -5 -3 -6 -13 -3 -21
7 -18 53 -67 53 -57 0 4 5 2 11 -4 12 -12 -14 -73 -31 -73 -6 0 -10 -4 -10
-10 0 -5 7 -10 15 -10 8 0 15 -5 15 -11 0 -5 -4 -7 -10 -4 -5 3 -10 -1 -10 -9
0 -8 5 -18 10 -21 11 -7 3 -76 -10 -85 -10 -7 0 -81 10 -75 13 8 20 -26 23
-114 1 -44 5 -81 9 -81 3 0 4 -9 1 -20 -3 -11 0 -20 6 -20 17 0 23 -2 80 -27
31 -14 84 -27 122 -30 64 -6 72 -4 152 36 47 23 92 50 101 60 9 10 21 44 26
76 5 32 14 63 19 68 5 5 7 15 4 22 -2 7 3 27 12 44 9 18 13 36 10 41 -3 5 -1
11 5 15 5 3 10 15 10 26 0 11 7 22 15 25 10 4 12 10 7 18 -9 11 -24 219 -27
356 0 36 -4 75 -9 88 -4 14 -3 22 3 22 16 0 14 123 -1 138 -10 10 -10 14 0 21
16 9 30 161 15 161 -5 0 -7 16 -5 35 3 22 -3 50 -14 73 -17 32 -19 59 -17 207
2 195 7 265 23 295 14 27 -6 215 -27 247 -10 14 -11 23 -4 23 6 0 13 11 17 25
4 18 1 30 -14 43 -15 12 -21 33 -24 74 -3 31 -1 55 4 52 4 -3 8 2 8 11 0 11 5
15 14 12 18 -7 10 27 -10 44 -11 9 -11 15 -3 25 7 9 11 56 10 126 -1 94 -4
115 -19 126 -11 8 -13 15 -6 20 16 11 24 41 14 47 -6 4 -10 1 -10 -5 0 -6 -5
-8 -11 -4 -6 3 -7 9 -3 13 12 8 34 73 34 100 0 12 7 24 15 27 8 4 15 18 14 33
0 22 -2 23 -8 7 -9 -23 -16 -14 -26 32 -5 25 -3 32 9 32 9 0 16 -7 16 -16 0
-14 3 -14 15 -4 10 8 13 20 9 34 -4 12 -6 36 -5 54 1 24 -2 32 -13 30 -16 -3
-16 -2 -16 37 0 31 17 33 22 3 4 -28 28 -36 28 -9 0 38 -34 86 -53 74 -6 -3
-7 8 -3 28 3 19 6 41 5 49 -1 8 -2 59 -3 113 l-2 98 31 15 c31 14 85 16 85 2
0 -4 -6 -8 -12 -9 -7 0 0 -5 16 -10 34 -9 48 -3 26 12 -11 6 -12 11 -4 17 17
11 44 142 44 210 0 55 -2 60 -24 66 -33 8 -56 -2 -56 -25 0 -10 4 -19 8 -19
17 0 -1 -63 -19 -67 -11 -3 -19 -12 -19 -21 0 -12 -5 -11 -21 6 -14 15 -20 33
-18 55 2 18 -2 57 -9 88 -11 49 -12 229 -1 268 9 30 -22 16 -141 -66z m-640
-1014 c0 -5 -9 -9 -20 -9 -11 0 -20 6 -20 14 0 9 7 12 20 9 11 -3 20 -9 20
-14z m-22 -54 c-3 -3 -9 2 -12 12 -6 14 -5 15 5 6 7 -7 10 -15 7 -18z m42 -45
c8 -5 11 -12 8 -15 -4 -4 -17 0 -30 9 -24 17 -5 23 22 6z m-597 -40 c3 -11 2
-20 -3 -20 -4 0 -10 11 -12 25 -6 29 7 25 15 -5z m647 -4 c0 -3 -4 -8 -10 -11
-5 -3 -10 -1 -10 4 0 6 5 11 10 11 6 0 10 -2 10 -4z m-83 -23 c4 -9 1 -19 -5
-21 -7 -2 -9 -9 -6 -14 4 -7 2 -8 -4 -4 -15 9 -16 56 -2 56 6 0 14 -8 17 -17z
m-242 -3 c3 -5 1 -10 -4 -10 -6 0 -11 5 -11 10 0 6 2 10 4 10 3 0 8 -4 11 -10z
m-95 -10 c0 -12 -8 -12 -35 0 -18 8 -17 9 8 9 15 1 27 -3 27 -9z m184 -5 c-4
-8 -8 -15 -11 -15 -2 0 -11 7 -19 15 -14 13 -13 15 10 15 18 0 24 -4 20 -15z
m253 -21 c-3 -3 -12 -4 -19 -1 -8 3 -5 6 6 6 11 1 17 -2 13 -5z m-341 -29 c16
-8 23 -15 17 -15 -7 0 -13 -7 -13 -15 0 -8 -4 -15 -10 -15 -5 0 -10 9 -10 20
0 17 -7 20 -46 20 -27 0 -43 4 -39 10 9 15 69 12 101 -5z m-176 -35 c0 -5 -2
-10 -4 -10 -3 0 -8 5 -11 10 -3 6 -1 10 4 10 6 0 11 -4 11 -10z m503 -92 c-3
-86 2 -98 42 -98 15 0 20 -7 22 -27 0 -15 -2 -21 -6 -14 -6 9 -11 8 -21 -4
-10 -12 -10 -15 4 -15 11 0 16 -9 16 -26 0 -21 -4 -25 -22 -22 -16 2 -24 11
-26 28 -2 13 -11 29 -19 36 -9 6 -13 16 -10 22 5 6 0 8 -13 5 -15 -4 -20 0
-20 16 0 12 6 21 15 21 12 0 15 16 15 80 0 58 3 80 13 80 9 0 12 -21 10 -82z
m-703 -8 c0 -5 -4 -10 -10 -10 -5 0 -10 5 -10 10 0 6 5 10 10 10 6 0 10 -4 10
-10z m420 -53 c0 -20 -36 -55 -46 -44 -2 2 -1 18 2 35 8 39 44 46 44 9z m-90
-27 c0 -5 7 -10 15 -10 8 0 15 -9 15 -20 0 -11 -4 -20 -10 -20 -5 0 -10 4 -10
10 0 5 -10 18 -22 30 -18 17 -19 20 -5 20 9 0 17 -4 17 -10z m-50 -45 c0 -8
-4 -15 -9 -15 -13 0 -22 16 -14 24 11 11 23 6 23 -9z m274 9 c20 -8 21 -34 1
-34 -8 0 -15 2 -15 4 0 2 -3 11 -6 20 -7 18 -4 19 20 10z m57 -7 c-1 -12 -15
-9 -19 4 -3 6 1 10 8 8 6 -3 11 -8 11 -12z m-123 -15 c2 -7 -6 -12 -17 -12
-21 0 -27 11 -14 24 9 9 26 2 31 -12z m-163 -2 c3 -6 -4 -10 -17 -10 -18 0
-20 2 -8 10 19 12 18 12 25 0z m300 -247 c14 -15 25 -34 25 -41 0 -9 6 -12 15
-8 9 3 15 0 15 -8 0 -7 -15 -18 -32 -24 -31 -10 -32 -11 -10 -17 12 -4 22 -11
22 -16 0 -21 -32 -20 -67 2 -29 18 -34 25 -20 27 26 5 15 27 -14 27 -20 0 -24
5 -24 28 1 15 -4 27 -10 27 -13 1 46 28 62 29 7 1 24 -11 38 -26z m-619 -11
c-8 -9 -19 -13 -22 -9 -10 9 16 38 28 31 6 -4 4 -13 -6 -22z m708 -48 c9 -22
-3 -32 -14 -14 -12 19 -12 30 -1 30 5 0 12 -7 15 -16z m-104 -98 c0 -11 -19
-15 -25 -6 -3 5 1 10 9 10 9 0 16 -2 16 -4z m97 -12 c-3 -3 -12 -4 -19 -1 -8
3 -5 6 6 6 11 1 17 -2 13 -5z m59 -29 c-5 -25 -3 -35 6 -36 10 0 10 -2 0 -6
-6 -2 -10 -9 -6 -14 3 -5 2 -14 -1 -19 -4 -7 -16 -1 -30 15 -13 14 -31 25 -40
25 -8 0 -15 7 -15 15 0 8 6 15 13 15 18 0 67 24 67 33 0 4 3 7 6 7 3 0 3 -16
0 -35z m-806 -251 c0 -8 -4 -12 -10 -9 -5 3 -10 10 -10 16 0 5 5 9 10 9 6 0
10 -7 10 -16z m45 -48 c0 -37 -10 -40 -39 -13 -28 26 -23 35 19 36 16 1 21 -5
20 -23z m530 6 c-3 -3 -11 0 -18 7 -9 10 -8 11 6 5 10 -3 15 -9 12 -12z m-738
-104 c-3 -7 -5 -2 -5 12 0 14 2 19 5 13 2 -7 2 -19 0 -25z m45 20 c-9 -9 -15
-9 -24 0 -9 9 -7 12 12 12 19 0 21 -3 12 -12z m-47 -118 c3 -5 -1 -10 -9 -10
-9 0 -16 5 -16 10 0 6 4 10 9 10 6 0 13 -4 16 -10z m115 -5 c0 -8 -7 -15 -15
-15 -8 0 -15 7 -15 15 0 8 7 15 15 15 8 0 15 -7 15 -15z m130 6 c0 -11 -31
-24 -39 -16 -3 3 1 10 9 15 19 12 30 12 30 1z m-170 -35 c0 -3 -4 -8 -10 -11
-5 -3 -10 -1 -10 4 0 6 5 11 10 11 6 0 10 -2 10 -4z m-100 -76 c8 -5 11 -10 5
-10 -5 0 -17 5 -25 10 -8 5 -10 10 -5 10 6 0 17 -5 25 -10z m110 -36 c0 -8 -4
-12 -10 -9 -5 3 -10 10 -10 16 0 5 5 9 10 9 6 0 10 -7 10 -16z m-160 -10 c0
-8 -5 -12 -10 -9 -6 4 -8 11 -5 16 9 14 15 11 15 -7z m210 -61 c0 -5 -3 -18
-6 -30 -7 -24 -30 -32 -31 -10 0 6 -4 20 -8 30 -6 14 -2 17 19 17 14 0 26 -3
26 -7z m-59 -112 c-34 -34 -44 -24 -14 14 19 24 29 30 31 21 2 -8 -6 -24 -17
-35z m-51 21 c0 -11 -10 -24 -22 -30 -19 -9 -20 -11 -5 -11 10 -1 15 -6 12
-11 -9 -15 -35 8 -35 31 0 16 24 38 43 39 4 0 7 -8 7 -18z m67 -222 c3 -10 2
-11 -4 -4 -4 6 -15 14 -23 17 -11 5 -9 6 4 4 11 -1 21 -9 23 -17z m-10 -52
c-3 -8 -6 -5 -6 6 -1 11 2 17 5 13 3 -3 4 -12 1 -19z m931 -45 c-4 -22 -22
-20 -26 1 -2 10 3 16 13 16 10 0 15 -7 13 -17z m14 -106 c-5 -20 -5 -20 -14 2
-4 13 -5 27 -2 33 10 16 22 -11 16 -35z m-805 -93 c-3 -3 -12 -4 -19 -1 -8 3
-5 6 6 6 11 1 17 -2 13 -5z m-51 -20 c28 -7 30 -17 9 -38 -8 -8 -15 -28 -15
-45 0 -67 -30 -39 -51 48 -9 40 -3 55 18 47 8 -4 26 -9 39 -12z m-89 -96 c-3
-7 -5 -2 -5 12 0 14 2 19 5 13 2 -7 2 -19 0 -25z m53 -42 c0 -2 -7 -7 -16 -10
-8 -3 -12 -2 -9 4 6 10 25 14 25 6z m20 -56 c0 -5 -4 -10 -10 -10 -5 0 -10 5
-10 10 0 6 5 10 10 10 6 0 10 -4 10 -10z m-368 -140 c5 0 8 -10 6 -22 -2 -13
-9 -22 -16 -20 -6 1 -12 -4 -12 -10 0 -16 -46 -38 -57 -28 -4 5 -17 10 -28 13
-19 5 -19 5 2 12 12 4 19 13 17 19 -3 7 1 18 9 25 12 9 16 7 20 -9 3 -13 10
-18 21 -14 18 7 22 24 6 24 -5 0 -10 5 -10 11 0 6 7 8 16 5 9 -3 20 -6 26 -6z
m248 -80 c0 -10 -7 -23 -16 -30 -13 -11 -16 -10 -21 8 -3 11 -14 22 -26 24
-11 2 -22 9 -25 17 -3 10 3 12 27 9 17 -2 31 0 31 5 0 5 7 4 15 -3 8 -7 15
-20 15 -30z m63 -11 c-23 -8 -25 -6 -17 15 5 13 9 14 21 4 13 -10 13 -13 -4
-19z m-269 -3 c-8 -31 6 -38 40 -20 35 17 36 17 36 -1 0 -10 -10 -15 -30 -15
-16 0 -30 -4 -30 -10 0 -5 -9 -10 -19 -10 -11 0 -23 5 -26 10 -3 6 -18 10 -33
11 l-27 1 28 10 c16 6 27 17 27 29 0 12 7 19 20 19 16 0 19 -5 14 -24z m263
-73 c23 -18 -1 -53 -36 -53 -25 0 -28 3 -23 23 9 35 35 72 40 56 2 -8 11 -19
19 -26z m13 33 c0 -3 -4 -8 -10 -11 -5 -3 -10 -1 -10 4 0 6 5 11 10 11 6 0 10
-2 10 -4z m36 -32 c-3 -8 -10 -12 -16 -9 -7 4 -6 14 2 28 12 24 24 8 14 -19z
m-150 16 c8 0 14 -9 14 -20 0 -25 -24 -26 -49 -1 -20 20 -16 35 7 26 7 -3 20
-5 28 -5z m-86 -236 c0 -9 -5 -14 -12 -12 -18 6 -21 28 -4 28 9 0 16 -7 16
-16z m-500 -175 c0 -17 -3 -18 -21 -9 -16 9 -18 14 -9 26 15 17 30 9 30 -17z
m300 -49 c-19 -12 -40 -13 -40 -1 0 9 40 20 50 13 2 -2 -2 -7 -10 -12z m-236
-11 c-3 -5 -10 -7 -15 -3 -5 3 -7 10 -3 15 3 5 10 7 15 3 5 -3 7 -10 3 -15z
m176 7 c0 -3 -4 -8 -10 -11 -5 -3 -10 -1 -10 4 0 6 5 11 10 11 6 0 10 -2 10
-4z m147 -12 c-3 -3 -12 -4 -19 -1 -8 3 -5 6 6 6 11 1 17 -2 13 -5z m-397 -71
c0 -2 -9 -3 -20 -3 -13 0 -20 7 -20 20 0 19 1 19 20 3 11 -10 20 -19 20 -20z
m220 21 c0 -8 -4 -12 -10 -9 -5 3 -10 10 -10 16 0 5 5 9 10 9 6 0 10 -7 10
-16z"/>
<path d="M2326 10871 c-4 -5 -2 -12 3 -15 5 -4 12 -2 15 3 4 5 2 12 -3 15 -5
4 -12 2 -15 -3z"/>
<path d="M7006 14017 c-16 -34 -53 -85 -127 -171 -5 -5 -14 -4 -23 3 -18 15
-138 2 -144 -17 -5 -15 28 -13 39 1 3 5 9 2 12 -7 4 -9 2 -16 -3 -16 -5 0 -16
-7 -24 -16 -12 -11 -13 -20 -6 -34 16 -31 12 -60 -15 -92 -14 -16 -25 -40 -25
-52 0 -24 -34 -76 -50 -76 -10 0 -23 50 -15 58 3 4 11 0 16 -8 8 -11 10 -8 6
13 -2 16 0 27 7 27 22 1 44 47 46 96 2 68 2 70 -13 49 -13 -17 -15 -17 -46 1
-32 19 -33 19 -46 0 -8 -10 -16 -24 -18 -30 -2 -6 -16 4 -31 22 -29 33 -59 41
-73 20 -4 -7 -6 -41 -4 -76 3 -84 -2 -97 -39 -96 -42 1 -45 8 -20 42 13 17 20
39 18 53 -4 23 -5 23 -24 -10 -27 -48 -84 -111 -100 -111 -10 0 -10 -7 2 -36
20 -47 8 -61 -36 -45 -28 9 -33 8 -37 -9 -10 -37 -63 -14 -63 26 0 23 -3 25
-27 19 -16 -3 -29 -11 -31 -16 -2 -5 -14 -9 -27 -9 -15 0 -34 -14 -56 -42
l-33 -41 4 -101 c9 -235 9 -237 -65 -216 -38 11 -56 11 -103 0 -69 -16 -68
-15 -48 -35 22 -22 20 -27 -15 -47 -34 -20 -30 -42 7 -35 12 2 29 0 36 -4 9
-6 6 -9 -10 -9 -13 0 -42 -9 -64 -20 -23 -11 -54 -20 -69 -20 -68 0 -81 -36
-23 -64 30 -14 35 -14 31 -2 -8 20 13 26 79 21 60 -4 97 -26 78 -45 -17 -17
-111 -25 -129 -10 -20 17 -20 -3 1 -35 14 -21 14 -26 -4 -62 -11 -21 -23 -49
-27 -63 -10 -34 -44 -70 -67 -70 -21 0 -22 -4 -7 -31 7 -13 7 -25 1 -32 -5 -7
-12 -39 -15 -72 -4 -33 -13 -89 -22 -125 -23 -96 -30 -314 -15 -455 16 -152
24 -424 21 -770 l-1 -100 -37 -24 c-57 -36 -104 -106 -130 -195 -45 -155 -53
-399 -19 -536 14 -53 37 -116 105 -282 24 -60 32 -97 37 -170 3 -51 10 -103
16 -115 7 -14 8 -47 4 -85 -29 -271 -33 -324 -26 -333 4 -5 6 -71 4 -145 -3
-111 -7 -140 -22 -160 -10 -14 -22 -33 -25 -44 -7 -17 -15 -18 -85 -12 -59 5
-84 3 -106 -9 -15 -8 -39 -12 -51 -9 -20 5 -30 -4 -69 -58 -25 -34 -57 -78
-71 -97 -14 -19 -25 -42 -25 -52 0 -11 -6 -40 -12 -65 -11 -39 -22 -54 -66
-86 -81 -60 -172 -197 -172 -260 0 -36 -32 -93 -83 -146 -33 -34 -43 -39 -50
-27 -8 16 -63 20 -84 7 -6 -4 -23 -25 -38 -46 -14 -21 -40 -50 -57 -64 -29
-25 -42 -31 -118 -49 -27 -7 -134 -96 -199 -165 -14 -16 -31 -28 -38 -28 -7 0
-13 -4 -13 -10 0 -13 -85 -70 -105 -70 -8 0 -18 -7 -21 -15 -4 -8 -17 -15 -30
-15 -14 0 -27 -7 -30 -15 -4 -8 -16 -15 -28 -15 -12 0 -31 -8 -42 -18 -11 -10
-26 -19 -34 -19 -8 0 -19 -2 -25 -3 -24 -6 -56 1 -50 10 4 6 11 7 17 4 7 -4 8
-2 4 5 -4 6 -2 18 4 26 7 9 11 38 8 74 -1 33 0 62 3 65 3 3 1 41 -3 83 -6 51
-5 79 2 81 6 2 10 50 10 122 0 86 3 120 13 123 9 3 8 9 -4 23 -13 15 -15 40
-12 129 2 61 5 208 7 328 2 136 7 222 14 229 7 7 7 19 1 35 -5 13 -6 46 -3 71
4 26 8 72 11 102 2 30 7 62 10 70 10 28 11 90 2 96 -5 3 -6 22 -3 43 4 23 2
41 -5 45 -6 4 -8 19 -6 34 3 17 -1 34 -12 47 -18 21 -96 55 -124 55 -8 0 -42
16 -75 36 -32 20 -72 40 -87 45 -37 11 -100 -9 -157 -50 -25 -18 -57 -40 -72
-49 -16 -9 -28 -20 -28 -24 0 -5 -5 -8 -11 -8 -12 0 -117 -45 -139 -60 -8 -6
-40 -22 -70 -36 -30 -14 -61 -31 -69 -37 -13 -12 -63 -32 -200 -83 -35 -13
-67 -28 -71 -33 -8 -14 -122 -64 -205 -90 -76 -24 -72 -23 -195 -75 -47 -19
-98 -39 -115 -42 -16 -4 -39 -13 -50 -20 -11 -7 -42 -20 -70 -29 -60 -20 -107
-41 -240 -105 -55 -26 -120 -54 -145 -63 -77 -26 -134 -47 -155 -57 -11 -6
-45 -18 -75 -29 -113 -38 -156 -55 -200 -77 -25 -12 -80 -34 -124 -48 -43 -14
-88 -31 -100 -39 -11 -7 -59 -28 -106 -47 -47 -18 -127 -52 -178 -76 -51 -24
-97 -44 -102 -44 -17 0 -104 -31 -201 -72 l-97 -40 -7 -57 c-11 -87 -8 -747 4
-926 22 -324 64 -663 117 -954 28 -154 42 -204 54 -196 5 3 11 1 15 -5 3 -6
-1 -13 -9 -16 -10 -4 -14 -14 -11 -28 12 -55 77 -325 86 -360 6 -21 13 -35 16
-32 3 3 11 2 18 -4 30 -25 80 24 69 67 -3 11 2 25 10 32 20 17 20 35 1 51 -14
12 -14 15 1 31 22 24 27 24 39 -3 6 -12 21 -23 35 -25 14 -1 42 -5 62 -9 25
-4 38 -2 38 5 0 6 7 11 15 11 21 0 19 21 -3 26 -14 4 -17 16 -17 63 0 58 15
91 40 91 17 0 28 31 16 43 -5 5 -17 4 -30 -2 -17 -10 -21 -9 -21 4 0 8 8 15
18 15 9 0 23 9 30 20 10 17 10 20 -3 20 -20 0 -19 5 10 36 14 15 25 21 25 14
0 -8 8 -10 26 -6 20 5 24 3 22 -10 -2 -9 2 -19 9 -21 17 -6 4 74 -18 115 -10
17 -16 32 -13 32 9 0 30 -24 36 -42 5 -11 14 -15 27 -11 27 7 27 19 1 26 -11
3 -23 13 -26 24 -3 10 -9 27 -14 38 -18 43 -17 52 1 63 10 7 19 23 19 37 0 20
5 25 28 26 15 0 21 3 15 6 -7 2 -15 3 -18 1 -14 -9 -34 43 -28 73 5 28 7 30
14 14 5 -14 8 -6 8 25 -1 25 -3 39 -6 32 -8 -19 -22 -4 -16 18 5 17 7 17 20 5
8 -8 24 -15 36 -14 12 0 16 3 9 6 -15 6 -6 23 14 23 9 0 14 -11 14 -30 0 -22
-4 -28 -15 -24 -10 4 -15 0 -16 -12 -1 -11 -3 -39 -5 -63 l-4 -43 32 6 c46 9
52 19 34 54 -20 38 -20 56 -2 71 12 10 15 8 18 -11 2 -15 9 -23 21 -22 9 1 17
-2 17 -8 0 -5 4 -6 10 -3 15 10 12 35 -5 35 -8 0 -15 5 -15 10 0 17 -56 70
-74 70 -9 0 -16 5 -16 10 0 6 11 10 25 10 21 0 25 5 27 33 0 17 0 40 0 50 -1
10 9 39 23 65 l25 47 0 -47 c0 -26 -5 -50 -11 -54 -20 -12 13 -22 54 -17 31 4
37 9 37 28 0 13 6 26 13 28 9 4 9 6 -1 6 -7 1 -10 5 -7 11 10 16 75 12 75 -4
0 -24 21 -30 38 -11 13 13 14 19 5 22 -7 3 -13 10 -13 18 0 8 19 14 57 17 60
5 93 30 93 69 0 24 -20 25 -20 2 -1 -12 -6 -7 -15 12 -7 17 -14 24 -14 18 -1
-15 -37 -18 -45 -4 -6 8 14 21 42 27 15 3 51 45 52 61 0 23 -12 42 -25 37 -23
-9 -26 15 -5 36 11 11 18 25 15 31 -4 5 -1 17 6 25 11 13 8 19 -15 38 -25 20
-27 23 -12 35 11 9 16 10 16 2 0 -6 8 -11 19 -11 10 0 24 -7 31 -15 20 -24 30
-17 30 20 0 19 -4 35 -10 35 -5 0 -10 7 -10 15 0 8 -7 15 -15 15 -10 0 -15 10
-15 33 0 18 -5 38 -11 44 -13 13 -5 43 11 43 5 0 10 -9 10 -20 0 -26 17 -26
25 0 8 25 -3 43 -21 36 -8 -3 -14 -1 -14 4 0 5 -8 11 -18 13 -13 4 -12 5 5 6
12 0 23 6 25 12 7 20 68 -19 90 -57 24 -40 35 -43 44 -9 11 46 24 26 24 -39 0
-37 -5 -66 -11 -68 -7 -2 -8 -17 -4 -41 6 -30 11 -37 31 -37 13 0 24 -5 24
-11 0 -6 12 -9 28 -7 15 2 27 8 27 14 0 30 93 82 113 62 6 -6 18 -8 26 -5 18
7 22 52 6 62 -15 9 -12 34 5 51 8 8 21 24 29 35 9 13 30 23 55 26 25 4 41 11
41 19 0 8 -7 14 -15 14 -8 0 -12 6 -9 13 9 24 -23 42 -51 29 -21 -10 -26 -8
-38 18 -10 20 -11 32 -4 39 13 13 -8 22 -48 18 -24 -2 -31 -7 -33 -30 -3 -22
-8 -27 -32 -27 -16 0 -30 -7 -34 -16 -8 -22 -51 -14 -50 9 1 9 -5 17 -13 17
-8 0 -11 -4 -8 -10 4 -6 -7 -10 -25 -10 -38 0 -31 -19 8 -21 24 -1 23 -3 -8
-9 -35 -7 -35 -7 -5 -9 17 -1 36 -5 44 -10 12 -8 11 -12 -4 -28 -17 -16 -18
-16 -12 0 5 14 0 17 -33 17 -32 0 -39 -4 -42 -21 l-3 -21 -24 21 c-23 20 -23
22 -7 39 15 17 15 22 1 56 -10 24 -21 36 -30 33 -7 -3 -21 3 -31 14 -14 16
-15 23 -5 45 6 15 9 35 6 45 -5 14 -1 19 11 19 10 0 33 6 52 12 29 11 33 16
30 40 l-4 27 29 -17 c27 -16 29 -16 43 2 13 19 14 18 14 -12 0 -22 5 -32 15
-32 10 0 15 10 15 28 0 16 7 37 15 48 14 19 14 19 15 -1 0 -12 6 -27 12 -33
10 -10 10 -15 -1 -21 -25 -16 -4 -41 34 -41 34 0 35 1 35 40 0 37 -2 40 -27
40 -24 0 -28 4 -29 30 -1 21 4 31 19 36 19 6 19 7 -6 22 -16 10 -27 25 -26 37
0 11 3 15 5 9 3 -7 14 -10 24 -7 14 4 20 0 20 -11 0 -9 6 -16 14 -16 8 0 13
11 12 30 -1 19 -6 30 -16 30 -8 0 -22 5 -30 10 -13 9 -13 11 0 20 8 5 25 7 37
3 13 -3 23 -1 23 5 0 5 -9 12 -21 15 -18 5 -19 8 -7 28 18 32 35 49 47 49 6 0
15 9 21 20 9 18 8 20 -15 20 -18 0 -25 5 -25 19 0 21 25 35 43 24 7 -4 7 0 -1
9 -9 12 -10 18 -2 23 6 4 10 14 8 23 -4 26 11 42 37 42 18 0 23 4 19 15 -4 8
-1 15 5 15 6 0 11 -4 11 -10 0 -21 16 -9 18 14 1 22 -1 24 -38 20 -41 -4 -54
8 -23 21 10 4 38 9 61 11 28 2 56 12 78 29 40 31 43 44 9 37 -17 -3 -25 -11
-25 -24 0 -25 -22 -19 -35 10 -7 16 -19 22 -40 22 -27 0 -28 1 -13 16 10 10
21 13 29 8 23 -14 89 -16 89 -3 0 6 6 9 14 6 7 -3 19 0 25 6 10 9 15 8 25 -5
7 -10 23 -18 35 -18 22 0 28 14 11 25 -16 10 11 55 33 55 34 0 79 64 84 117 5
56 13 68 59 83 30 10 35 16 32 38 -2 16 2 27 10 28 6 1 16 2 22 3 5 0 7 8 4
16 -4 10 0 15 13 15 13 0 23 12 31 35 9 23 18 32 27 28 9 -3 18 2 21 12 4 9
17 21 31 26 13 5 27 19 32 33 7 18 15 22 34 19 16 -3 34 4 54 21 18 15 34 22
37 17 9 -15 61 4 61 22 0 33 16 32 100 -4 11 -4 31 -9 45 -11 14 -2 25 -9 25
-18 0 -8 23 -26 50 -40 28 -14 54 -31 58 -37 4 -7 18 -12 30 -12 17 1 18 2 5
6 -13 3 -18 15 -18 41 0 34 14 73 22 62 20 -32 26 -50 18 -55 -19 -12 -10 -33
16 -39 16 -4 24 -12 21 -20 -3 -8 0 -19 6 -25 9 -10 8 -15 -6 -25 -16 -13 -16
-14 4 -19 28 -8 21 -39 -11 -47 -25 -6 -25 -6 -2 -12 25 -7 30 -36 7 -44 -8
-4 -15 -17 -15 -30 0 -19 -5 -24 -24 -24 -23 0 -24 -2 -13 -36 8 -27 8 -37 -1
-43 -18 -11 13 -81 35 -81 14 0 14 -2 -2 -20 -18 -19 -17 -20 13 -31 30 -10
44 -29 22 -29 -7 0 -7 -7 0 -20 5 -11 14 -28 19 -38 4 -10 4 -28 -1 -41 -5
-15 -5 -27 0 -30 13 -8 30 -125 38 -256 6 -111 7 -151 5 -280 -3 -120 8 -218
30 -270 42 -99 41 -97 71 -91 26 5 28 4 18 -14 -6 -11 -17 -20 -25 -20 -8 0
-15 -4 -15 -10 0 -17 -43 -50 -67 -50 -13 0 -23 -3 -23 -8 0 -4 -15 -13 -32
-20 -18 -8 -43 -18 -56 -23 -12 -5 -27 -20 -32 -33 -7 -20 -25 -32 -60 -41
-49 -13 -72 -21 -105 -38 -65 -33 -74 -37 -86 -37 -6 0 -23 -8 -37 -18 -15
-10 -49 -27 -77 -37 -27 -10 -64 -29 -81 -42 -17 -12 -34 -23 -38 -23 -16 0
-153 -101 -201 -148 -50 -48 -115 -154 -115 -186 0 -12 10 -16 38 -17 l37 0
-50 -19 c-27 -10 -62 -21 -77 -24 -15 -4 -43 -20 -62 -36 -18 -17 -36 -30 -39
-30 -4 0 -47 -25 -97 -55 -50 -30 -95 -55 -101 -55 -23 0 -88 -42 -143 -92
-72 -64 -176 -201 -176 -231 0 -12 -10 -42 -21 -67 -11 -25 -28 -85 -38 -135
-17 -86 -43 -155 -59 -155 -4 0 -13 -14 -21 -31 -14 -32 -86 -104 -104 -104
-17 0 -67 -55 -67 -73 0 -15 -2 -15 -10 -2 -8 12 -10 10 -10 -8 0 -15 4 -21
12 -16 7 4 8 3 4 -5 -4 -6 -11 -9 -15 -7 -4 3 -13 0 -21 -5 -13 -8 -13 -10 0
-19 13 -8 12 -10 -2 -10 -11 0 -18 -8 -18 -19 0 -31 -18 -34 -23 -4 -3 23 -4
21 -6 -9 0 -23 -9 -46 -21 -58 -12 -12 -18 -25 -15 -30 3 -5 -4 -14 -15 -20
-11 -6 -20 -19 -20 -30 0 -10 -6 -21 -12 -23 -10 -4 -10 -6 0 -6 6 -1 12 -6
12 -11 0 -6 -6 -10 -12 -8 -18 3 -68 -32 -68 -48 0 -7 -6 -11 -14 -8 -10 4
-12 -2 -8 -23 3 -15 9 -31 14 -34 5 -3 6 -13 2 -23 -5 -13 -9 -15 -15 -5 -10
17 -39 -6 -39 -32 0 -10 -5 -21 -12 -25 -8 -5 -7 -9 5 -13 35 -13 2 -29 -49
-24 -44 5 -51 8 -47 24 3 11 0 19 -7 19 -7 0 -9 8 -5 19 3 11 0 21 -9 24 -15
6 -27 81 -25 162 0 28 2 75 3 106 1 49 -1 55 -16 51 -10 -2 -18 0 -18 5 0 6
-13 24 -30 41 -23 25 -38 32 -76 33 -30 2 -49 -2 -52 -9 -2 -7 -19 -12 -37
-12 -19 0 -36 -4 -39 -9 -13 -20 145 -484 244 -718 30 -70 47 -100 57 -96 7 3
13 0 13 -6 0 -6 -4 -11 -10 -11 -19 0 3 -30 24 -31 18 -1 18 -2 3 -6 -10 -3
-16 -10 -14 -16 213 -508 502 -1016 846 -1490 616 -849 1446 -1595 2341 -2105
825 -470 1710 -765 2660 -886 305 -39 767 -61 1061 -51 119 4 222 11 229 15
10 6 8 15 -6 39 -21 36 -10 57 25 46 23 -7 27 -35 11 -66 -10 -18 -7 -19 52
-19 35 0 70 5 78 10 10 6 11 10 3 10 -9 0 -12 17 -9 60 2 33 0 63 -5 65 -4 3
-8 13 -8 23 0 9 -3 44 -6 77 -4 33 -7 76 -8 95 -1 19 -6 41 -10 48 -5 7 -4 19
3 27 9 10 7 15 -9 20 -23 7 -27 25 -11 41 8 8 6 15 -5 24 -18 15 -20 36 -2 43
7 4 3 8 -11 13 -16 5 -21 11 -17 23 4 9 9 21 12 27 2 6 -6 14 -18 17 -18 5
-20 9 -10 21 8 10 9 16 1 21 -5 3 -10 17 -10 29 0 13 -6 29 -14 36 -8 6 -12
18 -9 26 3 8 0 21 -7 29 -7 8 -10 25 -7 37 4 12 1 28 -5 35 -6 8 -8 16 -5 20
4 3 -1 12 -11 19 -14 11 -15 16 -4 33 16 27 16 28 -9 34 -17 5 -20 11 -15 31
3 14 1 28 -5 31 -6 4 -8 18 -5 30 3 13 1 27 -5 30 -6 4 -8 13 -5 20 3 8 -2 19
-10 26 -8 7 -12 20 -9 30 4 10 3 24 -1 31 -5 7 -9 35 -11 62 -2 27 -8 54 -13
61 -6 7 -8 20 -4 29 4 10 0 18 -10 22 -13 5 -15 14 -11 35 4 19 3 29 -5 29 -8
0 -11 10 -8 24 3 16 0 27 -10 31 -10 4 -13 14 -8 35 4 23 2 30 -10 30 -12 0
-15 6 -11 21 3 12 0 22 -9 26 -8 3 -14 14 -14 24 0 11 -4 27 -9 37 -38 70 -70
274 -76 480 -9 282 -12 329 -19 340 -7 12 -14 52 -22 127 -3 27 -10 55 -15 62
-6 6 -8 21 -4 32 3 12 3 26 -2 33 -18 30 -30 77 -21 86 7 7 2 12 -11 17 -23 7
-27 20 -10 30 7 5 5 13 -6 25 -8 9 -13 24 -9 33 4 10 0 19 -9 23 -19 7 -37 54
-43 107 -2 21 -11 45 -19 54 -8 8 -13 19 -10 24 3 4 -1 20 -10 33 -9 14 -14
30 -11 35 4 5 2 12 -4 16 -19 12 -50 84 -39 90 7 5 5 13 -5 24 -9 10 -13 26
-9 39 4 16 1 22 -11 22 -12 0 -14 7 -9 30 3 18 1 30 -5 30 -5 0 -13 21 -17 46
-4 26 -10 54 -15 63 -8 16 -29 131 -36 200 -14 138 -19 305 -18 561 2 251 5
313 23 420 36 212 61 327 87 403 34 101 67 262 57 284 -14 30 4 213 24 248 6
11 28 67 48 125 68 194 66 191 81 179 8 -6 14 -23 14 -38 1 -14 8 -44 16 -66
14 -35 46 -142 74 -245 10 -35 77 -318 105 -440 9 -36 20 -99 25 -140 6 -41
19 -109 29 -150 11 -41 27 -124 36 -185 9 -60 23 -143 31 -183 35 -180 76
-460 89 -607 8 -88 21 -212 29 -275 28 -216 35 -285 46 -465 17 -270 25 -342
60 -555 50 -309 51 -314 61 -324 5 -6 9 -28 9 -50 0 -23 5 -59 10 -81 39 -159
43 -224 45 -760 2 -291 -1 -584 -6 -650 -9 -132 -15 -262 -25 -552 l-7 -193
35 0 c115 0 805 114 828 136 3 3 5 15 5 27 0 11 6 22 13 24 7 3 12 -5 12 -20
0 -19 5 -24 18 -22 9 2 41 9 70 16 l53 11 -3 240 -3 240 58 53 c50 44 58 56
55 81 -2 21 -13 34 -42 50 -93 53 -116 96 -116 224 0 42 -7 103 -16 135 -8 33
-19 103 -23 155 -5 53 -18 127 -29 165 -36 121 -44 198 -32 303 7 54 18 101
26 109 8 8 38 15 70 17 51 2 60 5 86 36 18 23 28 44 26 60 -3 28 -21 30 -129
16 -55 -7 -58 -6 -76 21 -33 48 -69 145 -82 218 -7 39 -21 113 -33 165 -11 52
-24 149 -29 215 -4 66 -17 156 -29 200 -11 44 -25 113 -30 153 -5 40 -18 103
-29 140 -40 137 -54 220 -48 278 3 32 11 60 17 64 13 8 135 -14 153 -28 6 -5
31 -13 54 -17 33 -5 46 -3 59 9 19 20 29 82 20 130 -10 53 -37 66 -115 55 -44
-6 -67 -6 -71 1 -4 7 -33 9 -76 6 -38 -2 -78 -2 -90 0 -11 3 -35 29 -53 59
-18 30 -38 56 -44 58 -28 10 -97 -45 -97 -76 0 -33 -45 -82 -88 -96 -49 -16
-50 -22 -58 -191 -7 -149 -8 -157 -30 -139 -11 9 -14 22 -10 43 15 71 37 267
38 331 0 59 2 65 10 42 9 -25 13 -27 41 -21 36 8 67 25 67 37 0 5 20 32 45 59
49 55 54 79 32 144 -29 84 -40 191 -32 322 4 70 9 229 11 353 3 202 6 233 25
284 18 49 20 69 14 140 l-7 82 49 42 c39 34 45 43 33 51 -8 5 -24 10 -35 10
-11 0 -42 7 -70 16 -27 9 -56 18 -62 20 -19 5 -16 61 3 68 9 3 43 6 76 6 54 0
65 -4 102 -34 23 -18 57 -41 76 -51 19 -10 51 -31 70 -47 66 -55 125 -94 169
-112 25 -9 57 -26 73 -37 69 -50 132 -39 160 27 41 98 68 176 68 197 0 13 4
27 10 33 5 5 13 41 19 79 10 77 22 112 66 195 16 30 36 78 45 105 9 28 24 66
32 85 52 113 66 150 73 195 4 28 13 68 20 90 8 22 17 55 20 73 3 18 12 51 19
75 8 23 17 65 21 92 4 28 11 55 15 60 16 20 49 142 58 215 9 66 7 167 -2 195
-2 6 4 60 13 120 26 173 20 188 -103 309 l-101 100 3 173 4 173 -34 33 c-18
18 -42 40 -54 48 -11 7 -31 33 -43 56 -23 41 -24 51 -5 125 10 41 -2 72 -43
118 -67 75 -160 113 -283 119 -36 1 -90 5 -120 9 l-55 7 1 52 c1 40 9 61 33
97 18 26 35 62 38 81 3 19 10 35 14 35 5 0 9 8 9 18 0 32 31 107 66 159 19 29
40 66 45 83 12 34 24 37 51 13 36 -33 142 -15 201 34 16 13 36 23 46 23 10 0
41 -22 70 -50 49 -47 55 -50 109 -51 116 -3 202 11 202 34 0 4 4 6 9 2 6 -3
14 2 19 11 7 13 13 14 30 5 14 -7 23 -8 27 -1 3 5 1 10 -4 10 -14 0 -14 11 -1
45 10 26 11 26 35 11 13 -9 26 -12 30 -7 3 5 -1 12 -7 14 -7 3 -3 6 10 6 12 1
22 -3 22 -9 0 -5 11 -12 24 -16 38 -9 63 -41 49 -63 -9 -15 -6 -23 18 -46 17
-15 32 -26 34 -23 13 13 8 101 -5 93 -5 -3 -10 1 -10 9 0 9 5 16 11 16 5 0 8
4 4 10 -8 14 64 85 105 103 45 20 96 20 126 0 40 -26 67 -99 60 -163 -18 -180
-19 -207 -2 -258 17 -51 36 -66 106 -87 14 -4 27 -12 31 -16 8 -13 157 -49
202 -49 45 0 94 26 104 55 3 11 5 62 4 113 -2 86 0 96 23 126 14 19 40 37 63
43 87 26 184 44 206 38 26 -7 123 -43 152 -56 19 -8 230 -36 460 -60 61 -6
129 -17 152 -25 35 -11 50 -11 98 1 56 15 114 42 149 70 18 14 19 20 9 66 -12
63 4 106 45 115 15 4 32 11 38 15 6 5 35 9 65 10 30 1 60 6 67 12 8 6 12 6 12
-2 0 -8 6 -9 18 -3 9 5 22 8 28 5 20 -7 63 16 110 59 l46 42 112 -2 c62 -2
125 2 139 7 24 9 27 16 27 54 0 35 -6 50 -27 71 -41 41 -87 47 -278 32 -76 -6
-480 -10 -775 -8 -74 1 -160 -1 -190 -5 -30 -3 -226 -7 -435 -8 -219 -1 -405
-7 -440 -13 -33 -6 -89 -17 -125 -24 -69 -14 -203 -16 -233 -3 -10 4 -32 4
-50 0 -18 -4 -67 -9 -111 -11 -43 -3 -86 -8 -95 -13 -36 -20 -220 10 -258 40
-6 6 -51 16 -100 24 -74 11 -105 10 -198 -2 -122 -16 -204 -12 -240 11 -13 9
-42 18 -64 22 -23 4 -41 10 -41 15 0 4 -10 17 -22 29 -20 18 -23 19 -39 4 -10
-9 -25 -14 -34 -10 -20 7 -68 -11 -60 -24 3 -5 2 -10 -3 -10 -11 0 -6 -33 10
-67 8 -17 7 -33 -5 -65 -8 -24 -15 -56 -15 -73 0 -16 -16 -76 -36 -133 -40
-114 -55 -147 -63 -138 -11 10 -33 -16 -33 -38 0 -12 -13 -37 -30 -56 -16 -19
-29 -40 -30 -46 0 -5 -14 -23 -31 -40 -24 -23 -29 -35 -25 -58 8 -41 -23 -124
-62 -163 -19 -19 -31 -40 -29 -47 3 -8 -1 -25 -8 -39 -7 -14 -16 -39 -20 -56
-4 -17 -15 -33 -26 -36 -10 -4 -23 -14 -28 -24 -7 -12 -23 -18 -47 -19 -20 -1
-43 -7 -51 -14 -9 -7 -31 -18 -49 -24 -31 -10 -36 -10 -45 7 -5 10 -19 19 -31
19 -12 0 -38 5 -57 11 -20 6 -48 14 -63 19 -20 6 -40 2 -78 -16 -56 -26 -90
-30 -106 -14 -6 6 -47 12 -90 14 -54 2 -90 9 -114 22 -25 13 -54 19 -100 18
-36 0 -68 4 -72 10 -4 6 -12 5 -22 -3 -19 -16 -34 -7 -47 26 -8 20 -14 24 -34
19 -21 -5 -25 -3 -25 14 0 12 -18 39 -39 61 -49 49 -60 78 -36 95 9 7 15 20
13 30 -3 15 -14 24 -58 44 -8 4 -16 22 -18 41 -4 33 -3 33 17 15 11 -10 25
-15 30 -11 15 8 14 55 0 55 -8 0 -9 11 -4 33 10 46 7 78 -10 97 -8 9 -15 22
-15 28 0 23 -22 23 -45 -2 -29 -31 -49 -32 -91 -7 -29 17 -31 24 -38 90 -7 84
3 115 60 182 21 26 47 56 57 68 26 32 48 22 65 -29 29 -90 54 -156 78 -201 28
-55 30 -71 8 -104 -12 -18 -13 -28 -5 -44 6 -11 11 -37 11 -58 0 -52 24 -147
44 -178 9 -14 38 -35 64 -48 39 -18 61 -22 136 -20 56 2 112 10 150 22 65 21
135 35 258 51 94 11 157 40 206 92 20 22 49 46 64 54 31 16 61 65 53 86 -3 8
1 31 10 51 15 36 15 37 -8 37 -13 0 -28 -5 -33 -10 -6 -6 -34 -19 -62 -29 -46
-17 -65 -18 -165 -11 -118 10 -178 21 -237 46 -58 25 -70 33 -163 107 l-90 71
24 19 c21 17 34 18 91 13 37 -3 96 -13 132 -21 105 -25 318 5 485 67 70 27
116 14 148 -41 13 -23 39 -47 67 -62 l45 -24 51 55 c51 54 52 56 52 120 1 89
-10 126 -60 191 -45 59 -105 96 -140 85 -17 -6 -25 4 -52 61 -18 37 -36 70
-39 73 -14 11 -41 60 -41 75 0 9 11 37 25 63 14 26 25 56 25 68 0 22 48 74 68
74 13 0 33 40 26 52 -3 4 -48 4 -102 1 -96 -6 -98 -5 -132 23 -19 16 -39 35
-44 44 -15 24 -109 109 -136 123 -13 7 -33 29 -44 50 -17 32 -18 43 -9 68 9
22 9 46 1 92 -6 34 -12 74 -12 89 -1 20 -8 31 -29 39 -15 6 -35 25 -44 40 -22
37 -35 37 -33 2 4 -58 -1 -61 -64 -37 -13 5 -16 -1 -16 -26 0 -29 -3 -32 -24
-28 -15 3 -27 0 -30 -8 -3 -8 -10 -14 -17 -14 -19 0 -73 -51 -86 -81 -7 -16
-17 -29 -23 -29 -5 0 -10 -8 -10 -18 0 -10 -11 -29 -25 -42 -14 -13 -25 -29
-25 -35 0 -7 -7 -25 -15 -42 -8 -16 -18 -52 -22 -79 -3 -27 -19 -76 -34 -109
-32 -73 -59 -173 -59 -224 0 -77 -12 -132 -27 -127 -15 6 -62 -42 -75 -76 -5
-11 -17 -18 -34 -18 -14 0 -39 -9 -54 -20 -16 -11 -32 -20 -37 -19 -25 4 -53
-3 -72 -20 -28 -25 -42 -20 -65 24 -20 36 -17 50 16 97 10 14 10 22 0 38 -6
11 -12 25 -12 31 0 6 -10 24 -21 41 -17 23 -19 32 -9 38 9 5 4 19 -19 51 -26
35 -31 51 -29 88 3 46 3 46 -32 49 -43 4 -67 25 -90 78 -10 23 -23 45 -29 48
-6 4 -11 14 -11 23 0 9 -8 23 -18 32 -11 9 -24 33 -31 54 -8 24 -19 37 -30 37
-24 0 -53 34 -45 53 3 9 -4 30 -18 49 -12 18 -23 35 -23 38 0 3 -10 19 -23 37
-12 17 -22 35 -22 41 0 5 -9 20 -19 34 -11 13 -23 36 -26 51 -4 14 -16 29 -26
32 -13 5 -19 16 -19 37 0 24 -3 28 -13 19 -11 -8 -16 -6 -25 12 -25 50 -12 97
29 97 10 0 20 4 23 9 3 5 32 21 63 36 73 35 224 46 254 19 12 -11 25 -14 36
-9 10 5 28 7 41 6 30 -3 95 19 108 37 8 11 13 12 18 4 10 -16 -1 -32 -22 -32
-14 0 -13 -4 6 -22 21 -22 30 -23 241 -26 141 -2 241 1 282 9 35 7 89 13 121
14 45 2 62 8 84 29 16 14 31 26 34 26 4 0 19 -18 36 -40 16 -21 35 -42 42 -45
17 -6 49 11 61 33 11 20 37 128 47 191 3 25 23 70 45 104 22 33 39 64 39 69 0
4 9 8 21 8 16 0 19 4 14 20 -5 16 -2 20 17 20 29 0 66 25 55 36 -4 5 -20 8
-34 9 -17 0 -32 9 -42 26 -24 40 -64 89 -72 89 -4 0 -35 16 -69 35 -34 19 -80
38 -102 41 -22 4 -46 14 -55 22 -21 21 -92 31 -253 36 -74 2 -175 9 -225 16
-49 6 -106 13 -125 16 -19 2 -57 8 -85 14 -27 6 -72 15 -100 20 -142 24 -197
52 -207 105 -8 39 2 77 18 71 8 -3 14 1 14 8 0 8 -5 16 -11 18 -14 5 13 56 41
75 l21 15 -21 23 c-20 21 -20 24 -5 39 10 9 14 23 11 31 -9 24 4 46 24 40 12
-4 21 3 29 23 7 16 11 33 10 38 -4 21 2 34 16 34 8 0 16 6 16 13 1 6 3 21 4
32 1 11 2 28 3 38 1 10 10 17 23 17 13 0 20 -6 18 -17 -3 -33 1 -43 16 -43 8
0 24 6 35 13 17 10 22 9 29 -2 7 -11 9 -11 13 0 5 12 9 12 27 1 12 -7 27 -9
34 -5 7 4 30 10 51 13 36 5 39 8 40 37 1 17 -2 29 -6 26 -5 -2 -8 1 -8 6 0 6
-10 11 -23 11 -13 0 -31 6 -41 13 -17 12 -17 14 -2 20 20 8 21 43 1 51 -8 3
-15 10 -15 16 0 13 -102 112 -108 105 -3 -3 -11 0 -17 5 -9 7 -21 7 -39 -1
-24 -11 -28 -10 -42 10 l-16 22 -16 -22 c-12 -17 -13 -26 -4 -40 7 -10 12 -23
12 -29 0 -15 -26 -12 -39 4 -7 8 -31 18 -53 21 -23 4 -48 14 -56 22 -8 8 -22
13 -31 10 -9 -2 -21 1 -26 7 -14 16 -18 46 -5 46 5 0 10 -10 10 -22 1 -22 1
-23 15 -4 22 29 19 36 -15 36 -20 0 -30 5 -30 15 0 9 -7 18 -15 22 -13 4 -12
8 7 22 13 9 25 15 28 14 3 -1 25 -4 49 -7 24 -2 48 -11 52 -18 7 -10 9 -10 9
0 0 6 5 12 11 12 5 0 7 -4 4 -10 -3 -5 3 -10 13 -10 11 0 25 -7 32 -15 14 -17
40 -20 40 -4 0 5 17 17 38 25 20 9 46 24 57 35 11 10 36 19 55 20 19 2 40 6
45 10 6 4 53 10 105 14 54 3 98 11 102 18 4 6 26 12 50 13 24 1 70 7 103 13
33 6 85 8 117 5 51 -6 60 -4 92 21 34 26 40 27 75 16 46 -13 64 -14 57 -2 -11
17 43 43 75 36 24 -6 29 -3 29 13 0 22 4 23 121 25 56 2 80 6 93 19 14 15 28
16 79 11 34 -3 70 -10 79 -14 9 -5 19 -5 22 -1 8 13 84 4 111 -14 13 -8 29
-14 37 -13 7 2 35 -7 62 -19 62 -28 132 -52 152 -52 8 0 36 -20 62 -44 31 -29
60 -47 85 -51 21 -4 49 -17 61 -29 26 -25 93 -179 99 -227 4 -33 10 -52 27
-94 37 -88 50 -138 39 -151 -6 -8 -7 -14 -2 -14 5 0 17 -13 26 -30 24 -39 40
-38 60 4 15 32 15 40 1 93 -8 32 -31 92 -51 133 -30 62 -37 89 -41 155 -4 88
-22 153 -53 197 -23 32 -59 189 -59 257 0 24 -7 69 -17 100 -76 259 -100 327
-139 406 -75 152 -121 230 -137 233 -8 2 -21 17 -29 35 -118 251 -140 286
-219 356 -67 59 -187 142 -277 190 -30 16 -137 30 -242 31 -41 0 -106 7 -145
15 -79 17 -201 19 -272 6 -26 -5 -99 -15 -161 -22 -99 -11 -114 -15 -127 -36
-16 -24 -73 -58 -82 -49 -3 3 9 19 27 36 18 17 31 32 29 34 -11 11 -94 15
-105 5 -10 -8 -19 -7 -33 3 -23 16 -230 16 -273 -1 -22 -8 -28 -8 -28 4 0 20
-71 75 -97 75 -12 0 -25 5 -28 10 -11 18 -20 10 -39 -33z m17 -163 c8 -8 -3
-34 -14 -34 -5 0 -9 9 -9 20 0 19 11 26 23 14z m991 -17 c-6 -16 -44 -40 -52
-33 -8 8 29 46 44 46 7 0 11 -6 8 -13z m-634 -2 c0 -10 -78 -85 -89 -85 -17 0
-13 17 12 43 31 33 77 58 77 42z m-527 -45 c-10 -17 -19 -26 -21 -20 -4 10 25
50 35 50 2 0 -4 -14 -14 -30z m1227 21 c0 -5 -17 -24 -37 -42 -21 -18 -46 -45
-55 -61 -19 -30 -38 -37 -38 -14 0 20 69 106 93 116 29 12 37 12 37 1z m-1265
-112 c-22 -64 -46 -111 -52 -105 -3 3 -2 34 2 70 6 59 9 66 33 74 15 5 28 8
30 7 1 -1 -5 -22 -13 -46z m-285 -49 c0 -11 -4 -20 -10 -20 -5 0 -10 9 -10 20
0 11 5 20 10 20 6 0 10 -9 10 -20z m578 -45 c-16 -24 -24 -30 -26 -19 -2 9 4
24 14 35 28 31 36 22 12 -16z m1024 -65 c4 0 8 -4 8 -10 0 -5 -3 -9 -7 -9 -30
5 -34 -2 -27 -50 5 -43 3 -54 -16 -78 -14 -17 -20 -20 -14 -8 5 11 8 50 7 88
-1 38 2 67 7 67 6 0 10 12 11 28 l1 27 11 -27 c6 -16 14 -28 19 -28z m-1662
26 c0 -16 -18 -31 -27 -22 -8 8 5 36 17 36 5 0 10 -6 10 -14z m-47 -36 c6 -22
-7 -35 -23 -25 -15 9 -12 45 4 45 7 0 16 -9 19 -20z m1743 -38 c-12 -12 -18 8
-10 35 l8 28 4 -28 c2 -16 1 -31 -2 -35z m-1677 -29 c13 -45 13 -53 4 -53 -11
0 -33 50 -33 72 0 32 19 19 29 -19z m468 15 c-3 -8 -6 -5 -6 6 -1 11 2 17 5
13 3 -3 4 -12 1 -19z m-563 -24 c10 -26 7 -56 -6 -52 -18 6 -32 34 -25 52 8
20 23 21 31 0z m386 -23 c0 -6 -4 -13 -10 -16 -5 -3 -10 1 -10 9 0 9 5 16 10
16 6 0 10 -4 10 -9z m1713 -269 c-3 -122 -9 -222 -12 -222 -4 0 -7 25 -7 56 0
41 -4 59 -17 69 -10 7 -17 26 -17 45 0 26 3 30 14 21 11 -9 15 -4 19 31 4 24
6 80 6 126 0 74 6 110 17 99 2 -2 1 -104 -3 -225z m-416 136 c-2 -13 -4 -3 -4
22 0 25 2 35 4 23 2 -13 2 -33 0 -45z m1068 -40 c4 -16 4 -32 0 -36 -10 -10
-35 29 -35 55 0 33 27 19 35 -19z m-1108 -35 c-3 -10 -5 -4 -5 12 0 17 2 24 5
18 2 -7 2 -21 0 -30z m533 -58 c10 -32 -3 -103 -13 -75 -10 26 -15 111 -9 133
6 21 7 21 10 -3 2 -14 7 -38 12 -55z m-1003 -112 c-3 -10 -5 -4 -5 12 0 17 2
24 5 18 2 -7 2 -21 0 -30z m1446 -63 c4 -40 2 -57 -3 -45 -8 19 -14 123 -6
114 2 -2 6 -33 9 -69z m-928 -29 c-5 -13 -7 -14 -15 -1 -6 8 -10 29 -10 45 l0
30 15 -29 c9 -16 13 -37 10 -45z m-2302 -28 c-7 -2 -19 -2 -25 0 -7 3 -2 5 12
5 14 0 19 -2 13 -5z m1530 -1180 c-6 -43 -33 -82 -33 -48 0 25 22 85 31 85 4
0 5 -17 2 -37z m978 -1719 c29 -18 39 -31 39 -49 0 -14 7 -28 15 -31 23 -9 18
-29 -10 -42 -32 -15 -92 -16 -100 -2 -3 6 -14 10 -24 10 -10 0 -32 7 -47 15
-16 8 -39 15 -51 15 -17 0 -20 4 -15 23 10 32 23 50 57 76 35 27 77 23 136
-15z m323 -769 c21 -14 24 -14 36 0 14 17 46 20 55 5 3 -5 0 -22 -8 -37 -16
-33 -12 -63 9 -63 9 0 14 -11 14 -30 0 -23 -7 -33 -31 -46 -23 -11 -34 -13
-42 -5 -6 6 -19 11 -29 11 -10 0 -26 4 -36 9 -9 5 -39 15 -65 22 -50 12 -67
31 -67 72 0 19 11 30 48 50 55 30 84 33 116 12z m219 -54 c21 -11 27 -21 27
-47 0 -39 -17 -54 -28 -25 -7 19 -9 20 -36 6 -35 -19 -66 -5 -66 30 0 19 8 29
33 39 17 8 34 13 37 12 3 -1 17 -8 33 -15z m-5722 -161 c10 -19 15 -38 12 -42
-7 -13 -43 -9 -49 6 -3 8 -14 16 -25 19 -26 7 -24 27 4 28 12 0 16 3 9 6 -17
7 -4 25 16 21 9 -2 24 -19 33 -38z m4313 4 c5 -14 4 -15 -9 -4 -17 14 -19 20
-6 20 5 0 12 -7 15 -16z m-4174 -468 c0 -3 -4 -8 -10 -11 -5 -3 -10 -1 -10 4
0 6 5 11 10 11 6 0 10 -2 10 -4z m-1030 -92 c0 -11 -5 -14 -16 -10 -9 3 -20 6
-25 6 -5 0 -9 5 -9 10 0 6 11 10 25 10 16 0 25 -6 25 -16z m-250 -314 c0 -5
-13 -10 -29 -10 -16 0 -32 -6 -34 -12 -3 -7 -6 -3 -6 10 -1 19 4 22 34 22 19
0 35 -4 35 -10z m-320 -99 c0 -12 -20 -25 -27 -18 -7 7 6 27 18 27 5 0 9 -4 9
-9z m113 2 c-7 -3 -13 -12 -13 -20 0 -11 -6 -14 -22 -9 -13 3 -27 6 -31 6 -4
0 -2 6 5 14 7 7 26 13 43 13 16 1 24 -1 18 -4z m7284 -89 c16 -4 26 -20 37
-58 16 -51 16 -51 -12 -91 -15 -22 -49 -53 -74 -70 -29 -19 -59 -50 -80 -85
-33 -54 -33 -55 -31 -175 l2 -120 -51 -45 c-86 -77 -158 -152 -158 -167 0 -3
-18 -32 -40 -64 -50 -74 -53 -128 -14 -222 33 -77 67 -262 54 -288 -16 -28
-12 -65 12 -110 20 -38 20 -46 10 -118 -18 -114 -26 -225 -18 -255 4 -16 13
-26 25 -26 19 0 67 55 95 108 17 34 67 62 135 77 22 5 31 11 27 21 -3 8 0 14
7 14 8 0 8 3 2 8 -24 17 -84 111 -103 162 -11 30 -19 73 -17 95 6 104 18 204
26 216 10 17 148 28 202 17 27 -6 52 -24 87 -60 28 -29 50 -55 50 -59 0 -14
64 -79 77 -79 7 0 13 8 13 18 0 10 14 26 30 35 17 10 30 24 30 30 0 7 14 25
30 41 17 16 30 33 30 37 0 4 23 14 51 22 39 12 66 13 117 6 131 -17 130 -17
142 -55 7 -19 9 -51 6 -72 -3 -20 -8 -73 -12 -117 -3 -44 -10 -107 -15 -140
-11 -63 -12 -70 -22 -95 -6 -17 -13 -53 -26 -150 -24 -167 -50 -234 -97 -246
-27 -7 -59 7 -149 66 -33 22 -81 50 -106 63 -58 31 -89 57 -89 77 -1 23 -21
45 -59 65 -19 9 -43 26 -54 36 -49 45 -80 30 -93 -46 -8 -51 -16 -65 -58 -107
-19 -19 -38 -48 -42 -63 -4 -16 -20 -47 -35 -71 -51 -74 -79 -145 -79 -199 0
-65 -20 -95 -64 -95 -50 0 -61 21 -61 114 0 79 -7 106 -25 106 -5 0 -13 -15
-18 -32 -9 -36 -42 -49 -68 -28 -26 23 -16 48 24 60 20 7 41 16 45 20 4 4 -1
29 -11 56 -12 30 -24 100 -31 180 -9 98 -19 153 -41 215 -36 101 -38 135 -10
144 26 8 26 45 -1 79 -29 37 -22 61 19 60 40 -1 40 6 2 39 -16 15 -41 49 -55
76 -25 50 -31 54 -95 66 -65 12 -144 49 -224 104 -77 53 -186 152 -186 168 0
10 28 51 48 72 7 7 35 46 61 85 79 116 165 197 242 228 37 15 91 30 120 34 61
8 89 19 89 37 0 12 58 77 120 134 19 17 98 97 175 177 77 80 145 146 150 146
6 0 20 -3 32 -6z m-7260 -186 c-3 -8 -6 -5 -6 6 -1 11 2 17 5 13 3 -3 4 -12 1
-19z m-182 -57 c3 -5 1 -12 -5 -16 -5 -3 -10 1 -10 9 0 18 6 21 15 7z m35
-189 c0 -13 -12 -22 -22 -16 -10 6 -1 24 13 24 5 0 9 -4 9 -8z m3640 -82 c12
-17 30 -30 42 -30 14 0 64 -43 143 -122 67 -68 149 -148 184 -178 34 -30 75
-73 90 -96 16 -22 54 -65 83 -95 30 -30 63 -69 73 -86 11 -18 23 -33 27 -33 4
0 8 -7 8 -15 0 -8 5 -15 10 -15 6 0 10 -9 10 -20 0 -11 4 -20 8 -20 4 0 16
-14 26 -31 10 -18 33 -44 50 -60 31 -27 31 -28 29 -123 -1 -81 1 -96 14 -96
12 0 14 -7 9 -31 -5 -26 -2 -32 15 -36 16 -5 19 -11 14 -30 -3 -13 -2 -29 2
-36 4 -7 8 -19 8 -27 0 -8 7 -15 15 -15 11 0 16 -13 18 -43 3 -37 1 -43 -15
-40 -14 2 -17 -2 -15 -19 2 -16 -2 -23 -12 -23 -9 0 -16 7 -16 15 0 19 -18 50
-48 84 l-24 26 -19 -23 c-17 -21 -21 -22 -39 -9 -11 7 -17 16 -14 20 3 3 -4
10 -15 17 -25 13 -27 35 -5 44 9 4 14 13 10 21 -3 9 0 15 10 15 12 0 14 10 12
43 -3 42 -3 42 -50 51 l-48 9 0 44 c0 27 4 42 10 38 30 -19 12 62 -24 109 -15
19 -36 14 -36 -8 0 -24 -26 -38 -39 -22 -10 12 -8 19 9 36 12 12 19 28 16 36
-5 13 -9 12 -31 -2 -24 -16 -27 -16 -47 2 l-20 19 7 -35 c9 -45 14 -52 30 -46
9 3 15 -11 19 -44 4 -31 13 -53 24 -59 15 -9 15 -13 4 -32 -12 -18 -11 -24 7
-43 13 -14 18 -29 15 -43 -7 -26 10 -37 36 -23 16 9 18 8 14 -5 -4 -8 -10 -15
-15 -15 -5 0 -9 -4 -9 -10 0 -5 8 -10 18 -10 9 0 23 -4 30 -9 11 -6 10 -11 -3
-24 -17 -18 -16 -57 3 -80 13 -15 7 -47 -9 -47 -5 0 -9 7 -9 15 0 8 -7 15 -15
15 -17 0 -20 -17 -4 -22 9 -3 15 -21 18 -50 1 -5 10 -8 22 -8 16 0 19 -4 14
-17 -11 -30 -10 -37 5 -38 10 0 14 -9 13 -25 -1 -14 -2 -41 -4 -60 -1 -19 1
-45 5 -57 6 -18 3 -23 -9 -23 -9 0 -14 -4 -10 -9 3 -5 1 -12 -5 -16 -5 -3 -10
-17 -10 -31 0 -17 -5 -24 -20 -24 -11 0 -23 8 -26 18 -3 9 -9 24 -13 32 -11
20 -83 59 -98 53 -13 -5 -14 -2 -18 47 -1 14 -7 38 -13 54 -12 26 -14 27 -35
13 -21 -13 -25 -12 -55 12 -23 20 -32 36 -32 57 0 34 -29 84 -30 51 0 -10 4
-27 10 -37 7 -13 6 -19 -3 -23 -17 -6 -34 21 -46 70 -5 21 -12 46 -16 56 -5
12 -2 17 10 17 9 0 13 5 10 10 -4 6 -10 8 -15 5 -4 -3 -10 2 -14 10 -3 9 0 15
9 15 22 0 18 14 -7 25 -16 7 -30 32 -49 89 -71 208 -223 502 -333 646 -89 115
-139 170 -157 170 -5 0 -9 2 -9 4 0 2 -3 13 -6 23 -5 16 -4 16 8 3 35 -39 78
-47 78 -14 0 9 6 13 13 10 6 -2 32 -10 56 -17 37 -10 46 -18 59 -50 11 -28 23
-41 46 -49 22 -7 39 -25 59 -60 16 -27 32 -50 37 -50 16 0 75 65 77 85 1 11 3
29 5 40 3 20 -3 22 -34 10 -12 -5 -17 0 -20 17 -2 17 -10 23 -28 23 -18 0 -26
6 -28 23 -4 27 -24 67 -34 70 -5 1 -20 2 -34 2 -14 0 -23 4 -19 10 3 6 16 10
28 10 12 0 31 8 42 16 18 13 18 17 5 27 -26 20 -80 94 -80 109 0 22 10 28 51
28 30 0 42 -6 59 -30z m-1716 -35 c-4 -8 -10 -12 -15 -9 -11 6 -2 24 11 24 5
0 7 -7 4 -15z m1281 -35 c-6 -10 -45 -1 -45 10 0 4 11 5 25 2 14 -2 23 -8 20
-12z m4410 -9 c33 -3 92 -3 130 1 39 4 112 6 164 3 80 -3 97 -7 117 -26 24
-23 50 -92 40 -108 -3 -5 -1 -34 5 -64 11 -51 10 -59 -10 -91 l-22 -36 -112 6
c-62 3 -150 9 -197 13 -47 5 -89 6 -95 3 -14 -9 -138 -15 -265 -12 -69 1 -101
16 -101 47 0 10 0 50 0 88 -2 155 -1 157 51 177 46 18 127 18 295 -1z m-7450
-30 c3 -5 1 -12 -5 -16 -5 -3 -10 1 -10 9 0 18 6 21 15 7z m2342 3 c-3 -3 -12
-4 -19 -1 -8 3 -5 6 6 6 11 1 17 -2 13 -5z m-700 -20 c-3 -3 -12 -4 -19 -1 -8
3 -5 6 6 6 11 1 17 -2 13 -5z m507 -6 c-7 -12 -54 -10 -54 2 0 6 13 9 29 8 16
-1 27 -6 25 -10z m-251 -55 c-7 -2 -19 -2 -25 0 -7 3 -2 5 12 5 14 0 19 -2 13
-5z m-2236 -135 c-3 -7 -5 -2 -5 12 0 14 2 19 5 13 2 -7 2 -19 0 -25z m3451
23 c8 -5 12 -17 10 -26 -3 -18 -4 -18 -20 -1 -29 28 -21 47 10 27z m-1405 -15
c9 -7 17 -15 17 -18 0 -3 -30 -3 -67 -1 -38 3 -92 4 -120 4 -29 -1 -53 3 -53
8 0 21 196 27 223 7z m1497 -86 c4 -16 16 -28 36 -35 42 -14 67 -36 55 -48
-12 -12 -3 -37 15 -37 17 0 46 -43 42 -62 -2 -8 10 -25 25 -39 20 -17 30 -37
34 -67 3 -23 8 -40 11 -38 2 3 13 -5 23 -18 21 -27 25 -66 8 -66 -17 0 -38 32
-39 57 0 12 -18 41 -40 65 -22 23 -40 48 -40 54 0 6 -7 17 -15 24 -8 7 -24 32
-34 55 -12 26 -30 48 -47 57 -21 10 -30 21 -32 45 -2 21 -9 33 -23 36 -11 3
-19 14 -19 27 0 30 32 22 40 -10z m-3490 -14 c0 -15 -14 -35 -21 -30 -15 9
-10 34 6 34 8 0 15 -2 15 -4z m1370 -105 c0 -11 -106 -25 -121 -15 -6 3 -14 2
-18 -3 -3 -6 -19 -13 -36 -17 -32 -8 -29 -4 30 31 23 14 145 17 145 4z m-1613
-47 c-3 -3 -12 -4 -19 -1 -8 3 -5 6 6 6 11 1 17 -2 13 -5z m80 0 c-3 -3 -12
-4 -19 -1 -8 3 -5 6 6 6 11 1 17 -2 13 -5z m131 -9 c-15 -9 -34 -12 -45 -8
-14 6 -11 9 17 14 54 10 57 9 28 -6z m-178 -65 c0 -5 -4 -10 -10 -10 -5 0 -10
5 -10 10 0 6 5 10 10 10 6 0 10 -4 10 -10z m3869 -108 c33 -46 101 -195 107
-234 4 -21 11 -38 16 -38 12 0 0 -40 -20 -62 -8 -10 -20 -18 -26 -18 -11 0
-66 109 -66 131 0 6 -6 23 -14 37 -52 96 -59 120 -46 151 7 17 10 37 6 46 -10
26 21 17 43 -13z m-4029 -32 c0 -5 -9 -10 -20 -10 -11 0 -20 5 -20 10 0 6 9
10 20 10 11 0 20 -4 20 -10z m-40 -50 c9 -6 10 -10 3 -10 -6 0 -18 -3 -27 -6
-11 -4 -16 -1 -16 10 0 18 17 21 40 6z m1400 6 c0 -2 -7 -6 -15 -10 -8 -3 -15
-1 -15 4 0 6 7 10 15 10 8 0 15 -2 15 -4z m-1479 -29 c-1 -4 -1 -14 -1 -22 0
-8 -7 -15 -15 -15 -13 0 -14 10 -6 48 2 7 22 -4 22 -11z m3719 -42 c0 -8 4
-15 10 -15 15 0 90 -73 90 -88 0 -10 -11 -12 -47 -6 -59 8 -66 12 -59 31 3 8
-1 24 -9 37 -9 13 -13 31 -9 40 8 20 24 21 24 1z m579 -40 c0 -5 -4 -3 -9 5
-5 8 -9 22 -9 30 0 16 17 -16 18 -35z m-4302 21 c-4 -13 -87 -21 -87 -8 0 16
10 19 51 19 25 0 38 -4 36 -11z m6843 -5 c0 -5 -7 -22 -15 -37 -8 -16 -15 -42
-15 -59 0 -64 -12 -105 -30 -105 -10 0 -20 -9 -23 -21 -5 -19 -7 -19 -34 -6
-34 18 -83 62 -83 76 0 16 51 71 66 71 22 0 94 41 94 54 0 14 20 36 32 36 4 0
8 -4 8 -9z m-6834 -54 c1 -10 -6 -22 -17 -28 -11 -5 -17 -14 -14 -20 8 -12 -6
-11 -25 1 -8 5 -10 10 -4 10 7 0 14 9 17 19 3 15 1 18 -12 15 -9 -3 -5 2 9 10
30 18 42 16 46 -7z m4344 -58 c0 -5 -4 -9 -10 -9 -5 0 -10 7 -10 16 0 8 5 12
10 9 6 -3 10 -10 10 -16z m-4326 -4 c-4 -8 -9 -15 -13 -15 -4 0 -13 -11 -19
-24 -16 -36 -71 -28 -79 12 -2 7 4 12 12 12 8 0 15 -4 15 -10 0 -22 40 -9 46
15 4 15 13 25 25 25 12 0 16 -5 13 -15z m2805 -4 c8 -5 11 -16 7 -26 -6 -17
-7 -17 -26 0 -28 25 -13 46 19 26z m1034 -49 c45 -42 80 -100 112 -182 16 -41
32 -79 37 -84 14 -17 9 -103 -7 -116 -11 -9 -19 -8 -39 7 -14 10 -26 23 -26
30 0 13 -83 147 -120 195 -11 14 -20 31 -20 36 0 5 -7 15 -16 22 -8 8 -14 25
-12 39 2 20 -1 26 -17 26 -29 0 -31 37 -3 52 33 17 78 7 111 -25z m510 -38
c-9 -23 -23 -16 -23 12 0 22 2 24 14 14 8 -6 12 -18 9 -26z m-1574 -124 c18
-63 35 -124 38 -135 3 -11 7 -27 9 -36 7 -27 -23 -49 -67 -49 -37 0 -53 -14
-27 -22 22 -8 -3 -28 -26 -22 -14 3 -29 0 -38 -9 -12 -13 -17 -12 -38 7 -48
43 -60 86 -24 86 8 0 14 4 14 9 0 5 10 11 23 14 21 6 22 11 22 89 -1 59 4 88
14 101 12 14 13 22 3 37 -15 25 -5 50 19 50 10 0 19 5 19 11 0 6 5 5 13 -3 7
-7 27 -65 46 -128z m-681 76 c3 -12 -1 -17 -10 -14 -7 3 -15 13 -16 22 -3 12
1 17 10 14 7 -3 15 -13 16 -22z m2290 -67 c14 -60 16 -112 3 -105 -5 3 -11 23
-15 43 -3 21 -8 55 -12 76 -9 56 11 45 24 -14z m-833 5 c11 -11 28 -23 38 -27
9 -3 17 -14 17 -24 1 -18 43 -73 56 -73 3 0 4 9 1 20 -3 11 -1 20 4 20 5 0 9
-8 9 -17 0 -10 3 -28 6 -41 l6 -22 -103 4 c-102 3 -159 18 -159 40 0 12 38 40
54 41 5 0 11 6 14 13 2 7 -2 10 -12 6 -12 -5 -16 0 -16 20 0 15 7 29 15 32 8
4 15 13 15 21 0 19 31 13 55 -13z m705 -24 c0 -33 -15 -48 -24 -24 -12 31 -7
64 9 58 8 -4 15 -19 15 -34z m-1098 -7 c60 -50 60 -66 -1 -39 -40 19 -74 66
-47 66 8 0 29 -12 48 -27z m-106 -8 c31 -8 59 -17 62 -19 14 -15 -13 -34 -64
-46 -32 -8 -66 -22 -76 -32 -10 -10 -18 -13 -18 -8 0 16 -14 12 -39 -11 -12
-12 -24 -19 -27 -17 -11 11 78 145 98 147 4 1 33 -6 64 -14z m2074 -55 c0 -11
-4 -20 -10 -20 -5 0 -10 9 -10 20 0 11 5 20 10 20 6 0 10 -9 10 -20z m-1949
-47 c89 -72 217 -230 260 -322 26 -54 14 -86 -35 -94 -83 -14 -146 -45 -146
-72 0 -6 -20 -16 -44 -24 -57 -17 -101 3 -111 50 -4 18 -18 53 -31 79 -30 59
-31 106 -3 136 19 21 20 26 9 78 -9 42 -16 56 -29 56 -38 0 -35 7 29 80 14 16
31 36 38 44 17 22 24 20 63 -11z m559 -27 c0 -6 -7 -2 -15 8 -8 11 -15 25 -15
30 0 6 7 2 15 -8 8 -11 15 -25 15 -30z m4405 16 c67 -37 76 -68 45 -154 -13
-35 -38 -87 -56 -116 -19 -29 -34 -55 -34 -59 0 -21 -47 -53 -76 -53 -29 0
-34 4 -39 33 -3 17 -4 50 -1 72 5 55 44 193 66 235 10 19 21 43 24 53 7 22 11
21 71 -11z m-3738 -29 c-3 -10 -5 -2 -5 17 0 19 2 27 5 18 2 -10 2 -26 0 -35z
m-1100 23 c4 -7 27 -23 50 -34 27 -14 59 -45 92 -89 28 -38 60 -74 71 -81 12
-7 28 -29 36 -48 8 -20 25 -39 39 -44 18 -7 25 -18 26 -37 2 -25 2 -26 6 -5 4
23 5 23 24 6 11 -10 19 -12 19 -5 0 15 -50 91 -61 91 -5 0 -24 24 -44 53 -19
28 -51 72 -70 97 -51 66 -48 73 33 64 37 -4 83 -8 102 -8 31 -2 38 -7 62 -51
21 -38 28 -46 33 -33 6 16 9 16 31 1 27 -17 31 -33 9 -33 -8 0 -15 -4 -15 -9
0 -17 28 -31 46 -24 17 6 18 5 5 -11 -13 -15 -13 -19 0 -27 19 -12 29 -11 29
1 0 6 7 10 15 10 8 0 15 -4 15 -10 0 -5 -6 -10 -14 -10 -30 0 -24 -30 38 -195
8 -22 15 -59 16 -83 0 -24 5 -52 11 -63 6 -12 8 -27 5 -35 -5 -13 -10 -13 -36
1 -16 8 -30 23 -30 33 0 10 -12 31 -27 49 -16 17 -37 43 -48 59 -33 46 -87
109 -96 112 -16 6 -9 -22 11 -48 11 -14 20 -30 20 -37 0 -6 18 -30 40 -53 43
-44 49 -60 25 -60 -25 0 -17 -19 28 -63 58 -56 69 -77 52 -101 -22 -29 -47
-15 -75 41 -15 29 -34 61 -43 71 -9 10 -17 28 -17 40 0 12 -8 23 -20 27 -11 4
-23 21 -29 40 -6 21 -35 60 -75 101 -36 37 -66 72 -66 78 0 7 -18 30 -40 51
-22 21 -40 42 -40 47 0 17 -63 97 -124 159 -36 37 -62 69 -59 73 11 10 32 7
40 -8z m1213 -11 c0 -8 -7 -15 -15 -15 -9 0 -12 6 -9 15 4 8 10 15 15 15 5 0
9 -7 9 -15z m-4720 -15 c0 -5 -4 -10 -10 -10 -5 0 -10 5 -10 10 0 6 5 10 10
10 6 0 10 -4 10 -10z m2760 0 c0 -5 -4 -10 -10 -10 -5 0 -10 5 -10 10 0 6 5
10 10 10 6 0 10 -4 10 -10z m1267 -26 c-3 -3 -12 -4 -19 -1 -8 3 -5 6 6 6 11
1 17 -2 13 -5z m-102 -24 c3 -5 -1 -10 -9 -10 -9 0 -16 5 -16 10 0 6 4 10 9
10 6 0 13 -4 16 -10z m-885 -71 c0 -10 4 -27 10 -37 12 -23 38 -133 46 -202 3
-30 13 -80 22 -110 8 -30 15 -67 16 -82 0 -14 4 -30 9 -34 10 -10 9 -52 -2
-58 -5 -4 -30 3 -55 14 -32 13 -46 25 -46 38 0 11 -7 25 -15 32 -8 7 -17 28
-21 49 -4 20 -22 73 -40 118 -22 53 -34 98 -34 129 0 40 5 50 35 78 19 18 35
35 35 39 0 3 4 18 10 32 11 29 30 25 30 -6z m-3080 -29 c0 -5 -7 -10 -16 -10
-8 0 -12 5 -9 10 3 6 10 10 16 10 5 0 9 -4 9 -10z m5270 -25 c16 -19 3 -40
-16 -24 -15 13 -19 39 -5 39 5 0 14 -7 21 -15z m-160 -55 c0 -23 16 -35 23
-18 3 7 6 -1 6 -19 1 -17 5 -43 11 -57 6 -16 6 -27 0 -31 -6 -4 -10 -18 -10
-31 0 -34 -22 -26 -35 12 -5 16 -18 40 -27 54 -10 13 -18 32 -18 42 0 10 -5
18 -12 18 -6 0 1 13 17 30 30 31 45 31 45 0z m66 3 c-10 -10 -19 5 -10 18 6
11 8 11 12 0 2 -7 1 -15 -2 -18z m-2749 0 c3 -10 12 -25 19 -33 7 -8 17 -34
22 -58 12 -52 -1 -55 -59 -14 -51 36 -67 73 -42 100 23 25 52 27 60 5z m1717
-9 c13 -35 7 -56 -16 -52 -23 3 -34 28 -24 54 7 19 32 18 40 -2z m1223 -66
c-3 -8 -6 -5 -6 6 -1 11 2 17 5 13 3 -3 4 -12 1 -19z m-5492 -7 c3 -5 1 -12
-5 -16 -5 -3 -10 1 -10 9 0 18 6 21 15 7z m8750 -48 c19 -9 35 -20 35 -25 0
-4 7 -8 15 -8 9 0 27 -11 40 -25 61 -60 3 -210 -75 -196 -88 15 -132 47 -171
122 -23 46 -24 77 -3 107 30 44 98 54 159 25z m-4405 -56 c0 -12 4 -28 9 -36
14 -22 2 -41 -26 -41 -18 0 -23 4 -19 18 3 9 8 34 12 54 6 40 24 43 24 5z
m-445 -64 c5 -28 13 -55 18 -59 10 -11 9 -78 -3 -110 -8 -21 -8 -29 2 -36 10
-6 8 -8 -4 -8 -26 0 -22 -27 6 -45 32 -22 61 -97 46 -124 -19 -37 -47 -44 -83
-23 -32 19 -51 19 -98 1 -21 -8 -34 -7 -57 5 -17 9 -40 16 -52 16 -11 0 -23 7
-26 15 -4 9 -13 13 -24 10 -12 -4 -28 11 -59 54 -23 33 -52 68 -64 78 -28 22
-33 62 -9 70 9 4 19 9 22 12 22 26 176 129 205 137 21 6 64 26 105 50 45 25
63 15 75 -43z m3549 -6 c0 -9 -1 -44 -2 -77 -2 -52 -5 -60 -21 -60 -12 0 -29
16 -44 43 -22 37 -25 52 -20 99 l6 56 41 -22 c25 -13 41 -28 40 -39z m506 43
c0 -5 -2 -10 -4 -10 -3 0 -8 5 -11 10 -3 6 -1 10 4 10 6 0 11 -4 11 -10z
m-2605 -10 c3 -5 -1 -10 -9 -10 -9 0 -16 5 -16 10 0 6 4 10 9 10 6 0 13 -4 16
-10z m-1359 -88 c72 -110 125 -252 94 -252 -5 0 -10 5 -10 10 0 6 -4 10 -9 10
-4 0 -6 -11 -3 -25 2 -14 -3 -36 -13 -52 -17 -25 -18 -26 -31 -8 -8 11 -14 44
-14 82 0 35 -4 63 -10 63 -5 0 -10 8 -10 18 0 9 -11 48 -25 86 -22 62 -25 116
-6 116 3 0 20 -22 37 -48z m1384 -13 c0 -24 -23 -21 -28 4 -2 10 3 17 12 17
10 0 16 -9 16 -21z m2545 -34 c0 -45 -20 -57 -36 -22 -8 18 -8 30 1 46 17 32
35 20 35 -24z m-2495 10 c0 -9 -9 -15 -21 -15 -18 0 -19 2 -9 15 7 8 16 15 21
15 5 0 9 -7 9 -15z m-2768 -69 c-2 -4 4 -19 13 -32 10 -15 13 -33 9 -49 -4
-17 -1 -32 9 -43 8 -9 20 -44 27 -77 7 -33 18 -74 25 -90 15 -37 8 -94 -12
-102 -32 -12 -143 75 -143 112 0 8 -4 15 -9 15 -5 0 -15 17 -22 38 -6 20 -16
42 -21 48 -4 7 -5 37 -2 69 6 47 13 63 41 91 18 18 33 40 33 48 0 23 24 25 40
2 8 -12 14 -25 12 -30z m2731 38 c11 -4 17 -17 17 -36 0 -28 2 -30 28 -24 20
5 23 4 12 -4 -10 -6 -11 -10 -2 -10 6 0 12 -10 12 -23 0 -22 31 -57 50 -57 6
0 10 -4 10 -8 0 -17 -13 -21 -31 -11 -28 15 -23 -6 6 -25 13 -9 29 -25 35 -36
10 -19 9 -20 -13 -15 -32 8 -47 -13 -22 -31 10 -7 22 -11 26 -8 11 6 31 -42
33 -76 1 -14 6 -25 11 -25 15 0 35 -15 35 -26 0 -5 -7 -9 -15 -9 -16 0 -21
-31 -7 -44 4 -4 7 -20 7 -34 0 -22 5 -27 23 -26 27 1 28 -8 5 -43 l-17 -26 29
7 c19 4 25 3 17 -2 -11 -7 -8 -17 12 -47 29 -42 31 -51 16 -60 -5 -3 -10 -18
-10 -32 0 -23 3 -25 34 -19 38 7 39 6 51 -65 6 -31 4 -37 -14 -42 -12 -3 -21
-12 -21 -21 0 -18 25 -22 35 -6 9 15 25 12 25 -4 0 -8 6 -16 13 -19 9 -3 9 -9
0 -25 -10 -17 -9 -21 9 -25 19 -5 20 -8 7 -23 -11 -13 -11 -18 -1 -21 6 -3 12
-13 12 -23 0 -9 7 -23 15 -30 8 -7 15 -20 15 -30 0 -10 7 -21 16 -24 11 -4 13
-13 8 -28 -3 -13 -11 -24 -15 -26 -18 -7 -8 -31 14 -34 22 -3 24 -13 11 -55
-5 -19 -2 -23 15 -23 25 0 26 -9 6 -36 -20 -26 -19 -54 3 -70 14 -11 14 -15 3
-23 -9 -6 -10 -11 -2 -15 16 -10 14 -26 -4 -26 -8 0 -15 -4 -15 -10 0 -5 7
-10 15 -10 18 0 19 -12 3 -28 -9 -9 -7 -12 8 -12 18 0 26 -9 52 -62 2 -5 -7
-8 -19 -8 -22 0 -22 0 -3 -15 16 -13 17 -16 4 -24 -13 -9 -12 -12 5 -25 11 -9
26 -16 33 -16 6 0 12 -5 12 -11 0 -14 -53 -79 -65 -79 -6 0 -16 -9 -22 -19
-14 -23 -73 -53 -112 -57 -58 -7 -113 -22 -130 -38 -9 -9 -22 -16 -27 -16 -12
0 -38 -30 -47 -53 -7 -18 -27 -24 -27 -7 0 6 -5 10 -11 10 -6 0 -8 -7 -5 -16
9 -24 -20 -52 -66 -65 -29 -7 -38 -14 -34 -25 4 -10 -5 -21 -26 -32 -17 -9
-41 -27 -53 -39 -12 -13 -28 -23 -34 -23 -8 0 -10 -11 -6 -34 6 -32 5 -34 -37
-55 -25 -11 -52 -21 -61 -21 -14 0 -16 -6 -11 -27 11 -47 10 -48 -25 -46 -45
2 -79 21 -83 47 -2 15 -10 21 -28 21 -37 0 -35 39 3 43 15 2 27 8 27 13 0 5 5
9 11 9 8 0 8 -4 0 -13 -8 -11 -5 -19 12 -35 24 -23 40 -21 30 3 -2 8 0 22 5
31 7 13 5 25 -10 45 -13 17 -21 45 -22 73 -1 45 9 57 30 36 8 -8 15 -6 23 4
18 21 5 36 -30 36 -18 0 -28 4 -24 10 4 6 15 8 26 5 27 -9 43 3 29 20 -7 8 -9
19 -6 24 4 5 -4 17 -16 25 -18 13 -19 16 -5 16 9 0 17 7 17 15 0 8 -5 15 -11
15 -13 0 9 23 38 38 12 7 24 25 28 41 3 16 13 35 21 42 8 6 21 26 29 43 8 17
28 40 44 51 16 10 32 31 35 47 4 21 10 26 23 22 14 -5 15 -4 4 4 -19 14 -7 28
34 42 24 8 37 19 41 36 4 14 16 27 30 30 13 3 24 10 24 14 0 4 6 8 13 7 6 0
21 1 32 3 15 2 13 4 -9 9 -16 3 -31 12 -34 19 -2 7 2 10 10 7 7 -3 20 -1 28 5
13 8 12 13 -4 40 -22 38 -15 108 13 132 10 9 21 22 25 29 5 11 7 11 12 1 5
-10 9 -10 21 -1 12 11 10 14 -14 26 -26 12 -26 13 -3 7 44 -10 53 -9 57 4 3 7
-1 11 -7 10 -7 -2 -15 3 -18 11 -3 10 0 12 11 8 25 -9 33 14 11 33 -10 9 -25
26 -32 38 -11 19 -10 25 4 39 15 15 15 18 0 28 -20 15 -21 41 -1 49 8 3 15 12
15 21 0 8 5 15 10 15 6 0 10 4 10 10 0 5 -6 9 -12 7 -7 -1 -12 6 -11 16 1 12
-4 17 -14 13 -26 -11 -35 5 -17 31 16 25 16 26 -7 20 -27 -7 -49 8 -49 34 0
11 -9 27 -20 36 -21 18 -27 43 -10 43 6 0 10 14 10 31 0 22 -5 32 -20 36 -20
5 -28 23 -10 23 6 0 10 7 10 15 0 8 -4 15 -8 15 -13 0 -32 47 -32 79 0 25 -3
28 -25 23 -25 -4 -36 13 -12 21 9 3 9 7 -1 20 -8 9 -21 13 -30 10 -13 -4 -14
-3 -6 6 13 14 0 117 -18 138 -8 10 -6 13 6 13 18 0 21 15 5 25 -7 5 -5 15 5
31 15 22 15 24 -4 34 -17 9 -20 18 -16 56 3 30 0 47 -8 50 -8 3 -11 17 -8 34
2 17 -2 37 -9 47 -12 14 -12 15 1 10 8 -4 23 -10 33 -13z m3150 -49 c23 -37
26 -48 17 -65 -7 -14 -19 -20 -33 -18 -20 3 -22 10 -25 66 -2 34 1 62 5 62 4
0 21 -20 36 -45z m-643 -5 c0 -5 -4 -10 -9 -10 -6 0 -13 5 -16 10 -3 6 1 10 9
10 9 0 16 -4 16 -10z m-30 -50 c0 -5 -2 -10 -4 -10 -3 0 -8 5 -11 10 -3 6 -1
10 4 10 6 0 11 -4 11 -10z m-4921 -56 c3 -16 1 -17 -13 -5 -19 16 -21 34 -3
29 6 -3 14 -13 16 -24z m4901 5 c0 -5 -4 -9 -10 -9 -5 0 -10 7 -10 16 0 8 5
12 10 9 6 -3 10 -10 10 -16z m-4582 -87 c41 -5 82 -62 79 -106 -3 -39 -21 -43
-51 -13 -13 13 -39 35 -56 47 -48 34 -66 103 -21 84 9 -4 31 -9 49 -12z m-188
-104 c0 -15 5 -28 10 -28 16 0 12 -80 -4 -86 -8 -3 -16 -14 -19 -25 -7 -26
-76 -27 -99 0 -8 10 -21 20 -28 23 -7 2 -12 21 -12 42 0 47 40 93 86 98 61 7
66 5 66 -24z m1040 18 c0 -15 -14 -36 -24 -36 -6 0 -22 -6 -36 -14 -14 -7 -47
-25 -75 -40 -27 -15 -81 -36 -120 -48 -38 -11 -74 -25 -79 -29 -13 -12 -46
-12 -46 0 0 9 155 88 255 130 28 12 57 26 65 31 15 9 60 14 60 6z m1000 -57
c0 -6 -4 -7 -10 -4 -5 3 -10 11 -10 16 0 6 5 7 10 4 6 -3 10 -11 10 -16z
m-4810 -40 c0 -20 -15 -26 -25 -9 -9 15 3 43 15 35 5 -3 10 -15 10 -26z m4354
9 c-11 -13 -32 -42 -47 -65 -23 -37 -67 -74 -67 -58 0 8 47 71 78 105 12 14
22 28 22 32 0 5 8 8 17 8 14 0 14 -3 -3 -22z m496 -3 c0 -8 -6 -15 -14 -15
-20 0 -29 17 -14 23 22 9 28 7 28 -8z m37 -7 c-3 -8 -6 -5 -6 6 -1 11 2 17 5
13 3 -3 4 -12 1 -19z m-3 -44 c10 -26 7 -69 -6 -82 -9 -9 -9 -15 0 -24 15 -15
16 -48 2 -48 -6 0 -8 -11 -4 -26 4 -15 2 -29 -4 -33 -8 -5 -9 -18 -1 -45 8
-30 8 -41 -2 -46 -9 -6 -9 -18 -2 -48 10 -40 10 -41 -18 -40 -26 1 -44 18 -19
18 18 0 10 37 -11 52 -25 16 -32 67 -18 126 5 22 4 41 -1 46 -13 13 -13 56 0
56 6 0 10 20 10 45 0 43 12 60 23 33 4 -8 8 -4 12 10 8 26 30 29 39 6z m-2081
-11 c8 -7 -11 -33 -23 -33 -5 0 -6 9 -3 20 5 20 15 25 26 13z m1017 -16 c0 -8
-19 -20 -42 -27 -24 -8 -46 -19 -50 -24 -4 -6 -10 -7 -14 -3 -8 7 33 51 56 60
27 10 50 7 50 -6z m-1407 -31 c37 -15 67 -54 67 -86 0 -18 -4 -20 -22 -14 -54
17 -105 71 -94 100 7 17 9 17 49 0z m967 4 c0 -5 -5 -10 -11 -10 -5 0 -7 5 -4
10 3 6 8 10 11 10 2 0 4 -4 4 -10z m-554 -22 c8 -27 0 -32 -33 -21 -40 14 -42
40 -4 40 21 0 33 -6 37 -19z m504 2 c0 -5 -7 -10 -16 -10 -8 0 -12 5 -9 10 3
6 10 10 16 10 5 0 9 -4 9 -10z m876 -57 c-14 -15 -26 -22 -26 -15 0 16 44 62
48 51 2 -5 -8 -21 -22 -36z m-563 20 c-7 -2 -19 -2 -25 0 -7 3 -2 5 12 5 14 0
19 -2 13 -5z m-443 -23 c0 -21 -16 -26 -39 -11 -18 11 -5 31 20 31 12 0 19 -7
19 -20z m-95 -20 c0 -18 -33 -26 -48 -11 -9 9 -8 14 3 21 21 14 45 8 45 -10z
m1305 16 c0 -3 -4 -8 -10 -11 -5 -3 -10 -1 -10 4 0 6 5 11 10 11 6 0 10 -2 10
-4z m-1390 -65 c0 -54 -18 -61 -51 -21 l-28 33 -8 -29 c-4 -16 -6 -35 -4 -43
1 -7 -2 -10 -8 -7 -5 4 -12 2 -16 -4 -9 -15 -51 -12 -65 5 -13 16 -50 21 -50
6 0 -5 -16 -12 -35 -15 -28 -6 -41 -2 -62 13 -31 25 -56 27 -73 5 -16 -19 -65
-15 -65 6 0 11 13 16 45 17 41 3 141 21 231 44 20 5 57 9 82 9 25 0 49 5 52
10 3 6 17 10 31 10 21 0 24 -4 24 -39z m3167 -27 c22 -4 33 -14 42 -41 16 -43
8 -53 -49 -63 -58 -11 -110 18 -110 61 0 42 44 58 117 43z m1150 -10 c-3 -3
-12 -4 -19 -1 -8 3 -5 6 6 6 11 1 17 -2 13 -5z m-982 -24 c0 -9 -11 -16 -27
-18 -27 -3 -38 14 -21 32 12 12 48 2 48 -14z m-3288 -76 c-3 -3 -12 -4 -19 -1
-8 3 -5 6 6 6 11 1 17 -2 13 -5z m-109 -34 c2 -14 3 -35 4 -47 0 -13 4 -23 9
-23 14 0 11 -28 -3 -32 -15 -5 -68 13 -68 23 0 4 7 15 16 24 19 19 11 33 -10
16 -18 -15 -77 -11 -98 7 -25 21 -15 29 42 37 27 4 53 11 56 17 12 19 49 4 52
-22z m3378 16 c27 -20 6 -43 -25 -27 -22 12 -26 23 -14 34 9 10 17 9 39 -7z
m-3561 -36 c3 -5 -3 -10 -14 -10 -24 0 -27 -10 -9 -28 17 -17 -3 -14 -26 3
-20 15 -20 15 0 30 22 17 40 19 49 5z m2032 -42 c-3 -7 -5 -2 -5 12 0 14 2 19
5 13 2 -7 2 -19 0 -25z m50 -23 c2 -38 -15 -47 -37 -20 -10 13 -10 19 5 35 25
28 30 25 32 -15z m1360 -30 c-7 -14 -15 -25 -19 -25 -11 0 -10 7 4 30 18 28
28 25 15 -5z m133 -9 c0 -19 -25 -27 -39 -13 -18 18 -13 27 14 27 15 0 25 -6
25 -14z m-124 -65 c-3 -5 0 -14 8 -20 16 -14 9 -58 -11 -65 -18 -7 -49 8 -57
29 -4 12 0 15 17 13 18 -2 23 2 25 25 2 15 8 27 13 27 6 0 8 -4 5 -9z m122
-74 c2 -18 -2 -29 -13 -33 -23 -9 -34 6 -28 39 7 36 37 32 41 -6z m1157 -112
c84 -31 115 -57 115 -100 0 -42 -16 -55 -65 -55 -23 0 -49 -6 -59 -13 -17 -12
-18 -19 -6 -65 14 -60 7 -103 -21 -128 -20 -18 -21 -18 -35 0 -9 13 -11 33 -7
62 4 29 1 49 -8 60 -12 14 -15 90 -10 232 1 39 6 39 96 7z m-1142 -39 c8 -20
-20 -43 -35 -28 -14 14 -3 42 16 42 7 0 16 -6 19 -14z m-103 -97 c0 -20 -15
-26 -25 -9 -9 15 3 43 15 35 5 -3 10 -15 10 -26z m118 -35 c4 -25 -19 -46 -37
-35 -20 13 -5 63 17 59 9 -2 18 -13 20 -24z m-1258 -64 c0 -5 -4 -10 -10 -10
-5 0 -10 5 -10 10 0 6 5 10 10 10 6 0 10 -4 10 -10z m2208 -24 c3 -12 -1 -17
-10 -14 -7 3 -15 13 -16 22 -3 12 1 17 10 14 7 -3 15 -13 16 -22z m-1040 -51
c11 -23 10 -25 -13 -25 -26 0 -29 7 -19 34 9 23 19 20 32 -9z m108 1 c15 -12
17 -18 8 -33 -18 -29 -39 -22 -42 15 -4 35 4 39 34 18z m934 -12 c0 -16 -16
-19 -25 -4 -8 13 4 32 16 25 5 -4 9 -13 9 -21z m0 -60 c0 -14 -3 -14 -15 -4
-8 7 -15 14 -15 16 0 2 7 4 15 4 8 0 15 -7 15 -16z m411 -9 c0 -6 -10 -12 -23
-13 -19 -4 -20 -2 -9 12 15 17 33 18 32 1z m-1323 -34 c25 -22 28 -49 9 -76
-12 -15 -15 -16 -23 -4 -5 8 -9 25 -10 39 0 14 -4 33 -8 43 -10 22 3 21 32 -2z
m1215 -15 c-6 -30 -27 -40 -54 -26 -25 14 -24 24 4 38 39 19 55 15 50 -12z
m-303 4 c0 -5 -4 -10 -9 -10 -6 0 -13 5 -16 10 -3 6 1 10 9 10 9 0 16 -4 16
-10z m140 -100 c0 -11 -4 -20 -10 -20 -5 0 -10 9 -10 20 0 11 5 20 10 20 6 0
10 -9 10 -20z m-1024 -30 c5 -5 8 -26 6 -47 -5 -36 -5 -36 -18 -12 -24 43 -15
86 12 59z m1254 -70 c0 -5 -4 -10 -10 -10 -5 0 -10 5 -10 10 0 6 5 10 10 10 6
0 10 -4 10 -10z m-1216 -45 c7 -20 -3 -45 -19 -45 -16 0 -26 25 -19 45 4 8 12
15 19 15 7 0 15 -7 19 -15z m22 -143 c1 -30 -2 -42 -12 -42 -8 0 -14 6 -14 14
0 7 -3 28 -6 46 -6 28 -4 32 12 28 15 -2 19 -13 20 -46z m881 -8 c-3 -3 -12
-4 -19 -1 -8 3 -5 6 6 6 11 1 17 -2 13 -5z m-847 -108 c0 -29 5 -46 14 -49 20
-8 32 -73 16 -92 -18 -22 -26 -12 -45 53 -9 31 -21 68 -26 81 -10 26 3 51 27
51 10 0 14 -13 14 -44z m1134 -128 c11 -55 13 -106 4 -122 -16 -28 -28 -7 -23
40 2 24 0 55 -5 68 -5 13 -6 27 -3 30 12 12 23 6 27 -16z m-2864 -40 c0 -10
-9 -9 -35 2 -17 8 -16 8 8 7 15 -1 27 -5 27 -9z m1800 -69 c0 -30 9 -69 25
-103 17 -38 23 -63 19 -85 -4 -17 -10 -31 -13 -31 -9 0 -36 81 -51 155 -7 33
-16 68 -21 77 -5 10 -7 29 -3 43 6 25 7 25 25 9 14 -12 19 -31 19 -65z m-1830
36 c0 -8 -7 -15 -15 -15 -16 0 -20 12 -8 23 11 12 23 8 23 -8z m2710 -26 c0
-5 -4 -9 -10 -9 -5 0 -10 7 -10 16 0 8 5 12 10 9 6 -3 10 -10 10 -16z m-2683
-85 c6 -17 -6 -88 -14 -80 -3 3 -6 19 -5 36 1 33 -3 36 -23 16 -9 -8 -10 -17
-4 -23 6 -6 4 -16 -4 -27 -11 -15 -18 -17 -33 -8 -27 15 -28 102 -2 102 12 0
18 8 18 21 0 20 0 20 31 -2 17 -12 33 -28 36 -35z m2700 30 c-9 -9 -28 6 -21
18 4 6 10 6 17 -1 6 -6 8 -13 4 -17z m23 -45 c0 -5 -4 -9 -10 -9 -5 0 -10 7
-10 16 0 8 5 12 10 9 6 -3 10 -10 10 -16z m-2860 1 c0 -5 -7 -7 -15 -4 -8 4
-15 8 -15 10 0 2 7 4 15 4 8 0 15 -4 15 -10z m2874 -61 c-3 -5 -10 -7 -15 -3
-5 3 -7 10 -3 15 3 5 10 7 15 3 5 -3 7 -10 3 -15z m20 -60 c-3 -5 -10 -7 -15
-3 -5 3 -7 10 -3 15 3 5 10 7 15 3 5 -3 7 -10 3 -15z m-885 -62 c6 -19 7 -46
2 -67 -5 -21 -10 -29 -13 -20 -24 73 -28 93 -23 110 8 26 21 18 34 -23z m36
-197 c11 -17 -5 -49 -21 -43 -19 7 -19 53 0 53 8 0 18 -5 21 -10z m935 -50 c0
-5 -8 -10 -17 -10 -15 0 -16 2 -3 10 19 12 20 12 20 0z m10 -60 c0 -5 -5 -10
-11 -10 -5 0 -7 5 -4 10 3 6 8 10 11 10 2 0 4 -4 4 -10z m-923 -36 c3 -8 -1
-23 -10 -32 -15 -14 -17 -14 -23 1 -8 21 1 47 16 47 6 0 13 -7 17 -16z m933
-24 c0 -5 -5 -10 -11 -10 -5 0 -7 5 -4 10 3 6 8 10 11 10 2 0 4 -4 4 -10z m20
-104 c0 -3 -4 -8 -10 -11 -5 -3 -10 -1 -10 4 0 6 5 11 10 11 6 0 10 -2 10 -4z
m-932 -34 c2 -15 -2 -22 -12 -22 -11 0 -16 9 -16 26 0 31 23 28 28 -4z m18
-148 c-5 -13 -10 -14 -18 -6 -6 6 -8 18 -4 28 5 13 10 14 18 6 6 -6 8 -18 4
-28z m964 -94 c0 -5 -8 -10 -17 -10 -15 0 -16 2 -3 10 19 12 20 12 20 0z
m-931 -59 c-15 -5 -22 6 -14 19 6 9 10 9 16 -1 5 -8 4 -15 -2 -18z m951 9 c0
-5 -7 -10 -16 -10 -8 0 -12 5 -9 10 3 6 10 10 16 10 5 0 9 -4 9 -10z m15 -60
c3 -5 -1 -10 -10 -10 -9 0 -13 5 -10 10 3 6 8 10 10 10 2 0 7 -4 10 -10z m25
-61 c0 -5 -4 -9 -10 -9 -5 0 -10 7 -10 16 0 8 5 12 10 9 6 -3 10 -10 10 -16z
m-920 -165 c0 -16 -16 -19 -25 -4 -8 13 4 32 16 25 5 -4 9 -13 9 -21z m50
-191 c0 -23 -4 -43 -9 -43 -11 0 -17 17 -26 80 l-7 45 21 -19 c15 -14 21 -31
21 -63z m990 57 c0 -5 -4 -10 -10 -10 -5 0 -10 5 -10 10 0 6 5 10 10 10 6 0
10 -4 10 -10z m20 -50 c0 -5 -7 -10 -15 -10 -8 0 -15 5 -15 10 0 6 7 10 15 10
8 0 15 -4 15 -10z m20 -60 c0 -5 -7 -10 -15 -10 -8 0 -15 5 -15 10 0 6 7 10
15 10 8 0 15 -4 15 -10z m-1006 -62 c14 -32 11 -58 -5 -58 -5 0 -9 13 -9 29 0
17 -5 33 -10 36 -10 6 -5 25 6 25 3 0 11 -14 18 -32z m1026 7 c0 -8 -7 -15
-15 -15 -8 0 -15 7 -15 15 0 8 7 15 15 15 8 0 15 -7 15 -15z m20 -55 c0 -5 -2
-10 -4 -10 -3 0 -8 5 -11 10 -3 6 -1 10 4 10 6 0 11 -4 11 -10z m15 -40 c3 -5
-1 -10 -9 -10 -9 0 -16 5 -16 10 0 6 4 10 9 10 6 0 13 -4 16 -10z m15 -60 c0
-5 -4 -10 -10 -10 -5 0 -10 5 -10 10 0 6 5 10 10 10 6 0 10 -4 10 -10z m-1030
-50 c0 -11 -4 -20 -10 -20 -5 0 -10 9 -10 20 0 11 5 20 10 20 6 0 10 -9 10
-20z m25 -90 c7 -22 6 -23 -9 -11 -9 7 -16 23 -16 34 0 26 15 12 25 -23z
m1050 -9 c3 -5 1 -12 -5 -16 -5 -3 -10 1 -10 9 0 18 6 21 15 7z m20 -61 c3 -5
1 -10 -4 -10 -6 0 -11 5 -11 10 0 6 2 10 4 10 3 0 8 -4 11 -10z m40 -110 c3
-5 1 -10 -4 -10 -6 0 -11 5 -11 10 0 6 2 10 4 10 3 0 8 -4 11 -10z m-1065 -41
c0 -31 -14 -39 -24 -13 -8 21 3 56 15 49 5 -4 9 -19 9 -36z m33 -141 c7 -28 0
-58 -13 -58 -16 0 -32 60 -25 96 l6 37 13 -25 c7 -13 16 -36 19 -50z m1087 32
c0 -5 -2 -10 -4 -10 -3 0 -8 5 -11 10 -3 6 -1 10 4 10 6 0 11 -4 11 -10z m20
-60 c0 -5 -5 -10 -11 -10 -5 0 -7 5 -4 10 3 6 8 10 11 10 2 0 4 -4 4 -10z m7
-62 c-3 -8 -6 -5 -6 6 -1 11 2 17 5 13 3 -3 4 -12 1 -19z m-1087 -57 c0 -14
-5 -33 -10 -41 -9 -13 -13 -12 -30 8 -18 22 -19 26 -4 54 12 24 18 27 30 17 8
-6 14 -23 14 -38z m1110 18 c0 -11 -4 -18 -10 -14 -5 3 -7 12 -3 20 7 21 13
19 13 -6z m20 -49 c0 -5 -4 -10 -10 -10 -5 0 -10 5 -10 10 0 6 5 10 10 10 6 0
10 -4 10 -10z m-1110 -100 c13 -25 5 -40 -21 -40 -14 0 -19 7 -19 30 0 35 23
41 40 10z m1130 -10 c0 -5 -4 -10 -10 -10 -5 0 -10 5 -10 10 0 6 5 10 10 10 6
0 10 -4 10 -10z m19 -103 c1 -10 -3 -15 -9 -12 -5 3 -10 21 -9 38 0 27 2 29 9
12 5 -11 9 -28 9 -38z m-1121 -33 c4 -25 -34 -62 -48 -48 -6 6 -7 25 -4 43 5
25 11 31 28 29 12 -2 22 -11 24 -24z m1142 -25 c0 -21 -16 -26 -23 -6 -6 17 3
38 14 31 5 -3 9 -14 9 -25z m-1136 -78 c3 -5 0 -13 -7 -19 -15 -13 -42 1 -33
17 9 13 33 15 40 2z"/>
<path d="M9015 6280 c3 -5 8 -10 11 -10 2 0 4 5 4 10 0 6 -5 10 -11 10 -5 0
-7 -4 -4 -10z"/>
<path d="M5300 7265 c0 -9 5 -15 11 -13 6 2 11 8 11 13 0 5 -5 11 -11 13 -6 2
-11 -4 -11 -13z"/>
<path d="M5472 7020 c0 -14 2 -19 5 -12 2 6 2 18 0 25 -3 6 -5 1 -5 -13z"/>
<path d="M5710 6820 c0 -5 5 -10 10 -10 6 0 10 5 10 10 0 6 -4 10 -10 10 -5 0
-10 -4 -10 -10z"/>
<path d="M5807 6774 c-8 -8 24 -64 35 -64 4 0 8 9 8 20 0 11 -4 20 -10 20 -5
0 -10 7 -10 15 0 15 -12 20 -23 9z"/>
<path d="M5675 6750 c3 -5 8 -10 11 -10 2 0 4 5 4 10 0 6 -5 10 -11 10 -5 0
-7 -4 -4 -10z"/>
<path d="M5917 6549 c-11 -13 -15 -28 -11 -44 8 -32 16 -31 32 2 22 50 9 77
-21 42z"/>
<path d="M5810 6306 c0 -2 7 -9 15 -16 13 -11 14 -10 9 4 -5 14 -24 23 -24 12z"/>
<path d="M6122 6261 c-11 -7 -11 -9 2 -14 10 -4 16 -1 16 8 0 17 -1 17 -18 6z"/>
<path d="M5820 6145 c7 -9 15 -13 17 -11 7 7 -7 26 -19 26 -6 0 -6 -6 2 -15z"/>
<path d="M5732 5999 c2 -6 8 -10 13 -10 5 0 11 4 13 10 2 6 -4 11 -13 11 -9 0
-15 -5 -13 -11z"/>
<path d="M5860 6003 c1 -18 18 -35 24 -24 4 6 4 16 1 21 -7 12 -25 13 -25 3z"/>
<path d="M5810 5990 c0 -5 4 -10 9 -10 6 0 13 5 16 10 3 6 -1 10 -9 10 -9 0
-16 -4 -16 -10z"/>
<path d="M9394 5615 c-9 -23 5 -65 21 -65 23 0 41 46 25 65 -16 19 -39 19 -46
0z"/>
<path d="M6280 4780 c0 -5 5 -10 11 -10 5 0 7 5 4 10 -3 6 -8 10 -11 10 -2 0
-4 -4 -4 -10z"/>
<path d="M6465 4380 c-3 -5 1 -10 10 -10 9 0 13 5 10 10 -3 6 -8 10 -10 10 -2
0 -7 -4 -10 -10z"/>
<path d="M6525 4070 c-3 -5 1 -10 9 -10 9 0 16 5 16 10 0 6 -4 10 -9 10 -6 0
-13 -4 -16 -10z"/>
<path d="M5940 3300 c0 -11 4 -20 10 -20 5 0 14 9 20 20 9 17 8 20 -10 20 -13
0 -20 -7 -20 -20z"/>
<path d="M5740 2990 c0 -5 4 -10 9 -10 6 0 13 5 16 10 3 6 -1 10 -9 10 -9 0
-16 -4 -16 -10z"/>
<path d="M11432 13624 c-34 -15 -103 -155 -93 -189 4 -14 8 -44 10 -78 1 -17
8 -30 20 -35 11 -4 20 -11 20 -17 1 -5 10 -10 21 -10 11 0 21 5 22 10 1 6 15
20 30 33 31 26 43 59 62 165 16 96 7 121 -44 124 -19 1 -41 0 -48 -3z"/>
<path d="M6210 13558 c0 -7 5 -20 10 -28 8 -12 10 -9 10 13 0 15 -4 27 -10 27
-5 0 -10 -6 -10 -12z"/>
<path d="M3890 13503 c0 -5 5 -15 10 -23 8 -12 10 -11 10 8 0 12 -4 22 -10 22
-5 0 -10 -3 -10 -7z"/>
<path d="M4606 13443 c-3 -3 -34 -7 -68 -9 -35 -2 -133 -11 -218 -20 -199 -21
-292 -23 -305 -7 -13 17 -82 6 -90 -14 -3 -11 -1 -13 10 -9 11 4 15 -2 15 -26
0 -46 22 -100 37 -93 8 2 16 -2 19 -10 7 -18 90 -28 229 -28 61 0 113 -4 116
-9 4 -7 13 -6 25 0 11 5 45 13 77 17 44 6 57 4 57 -6 0 -9 4 -8 13 3 11 15 68
25 152 28 22 1 75 22 75 30 0 3 12 6 28 8 15 1 41 4 57 5 49 5 105 28 105 43
0 8 6 17 13 20 22 8 13 47 -12 51 -12 2 -32 9 -44 15 -23 13 -279 22 -291 11z"/>
<path d="M12567 13292 c-20 -22 -22 -99 -4 -152 19 -55 69 -54 134 5 34 30 40
42 42 81 3 67 -16 84 -94 84 -47 0 -66 -4 -78 -18z"/>
<path d="M12751 13264 c0 -11 3 -14 6 -6 3 7 2 16 -1 19 -3 4 -6 -2 -5 -13z"/>
<path d="M11900 13157 c-19 -7 -39 -13 -44 -12 -19 1 -31 -34 -18 -55 10 -16
10 -20 0 -20 -7 0 -2 -6 12 -13 14 -7 71 -14 130 -15 58 -2 120 -5 138 -9 19
-3 38 0 48 7 11 10 18 10 26 2 18 -18 36 -14 48 8 16 29 3 60 -24 60 -13 0
-47 8 -77 19 -30 10 -81 21 -114 25 -33 4 -67 9 -75 11 -8 2 -31 -2 -50 -8z"/>
<path d="M3785 12840 c-3 -5 -1 -10 4 -10 6 0 11 5 11 10 0 6 -2 10 -4 10 -3
0 -8 -4 -11 -10z"/>
<path d="M12070 12681 c-8 -5 -44 -19 -80 -31 -117 -40 -122 -60 -47 -184 50
-82 72 -134 82 -193 8 -51 52 -103 87 -103 13 0 36 6 51 13 50 22 70 145 35
210 -23 43 -35 119 -25 163 6 23 7 53 3 68 -13 53 -64 80 -106 57z"/>
<path d="M2793 12650 c-9 -13 -9 -21 -2 -26 12 -7 29 13 29 34 0 18 -14 15
-27 -8z"/>
<path d="M2725 12560 c-7 -12 2 -30 16 -30 5 0 9 9 9 20 0 21 -15 27 -25 10z"/>
<path d="M2597 12423 c11 -31 14 -33 34 -23 30 17 24 40 -11 40 -24 0 -28 -3
-23 -17z"/>
<path d="M13410 12281 c0 -16 30 -41 49 -41 9 0 22 -5 29 -12 18 -18 34 4 26
36 -6 24 -11 26 -55 26 -27 0 -49 -4 -49 -9z"/>
<path d="M2207 12243 c-6 -31 2 -46 20 -35 12 8 6 62 -7 62 -4 0 -10 -12 -13
-27z"/>
<path d="M13360 12245 c0 -8 2 -15 4 -15 2 0 6 7 10 15 3 8 1 15 -4 15 -6 0
-10 -7 -10 -15z"/>
<path d="M2261 12226 c-8 -10 -9 -16 -1 -21 5 -3 13 1 16 10 9 22 -1 29 -15
11z"/>
<path d="M2240 12180 c0 -5 4 -10 9 -10 6 0 13 5 16 10 3 6 -1 10 -9 10 -9 0
-16 -4 -16 -10z"/>
<path d="M2290 12160 c0 -5 7 -10 15 -10 8 0 15 5 15 10 0 6 -7 10 -15 10 -8
0 -15 -4 -15 -10z"/>
<path d="M13753 12133 c-10 -16 -23 -34 -30 -41 -7 -7 -14 -27 -14 -43 -2 -42
-2 -42 -24 -72 -16 -22 -30 -29 -70 -33 -28 -3 -80 -9 -117 -14 -37 -6 -86
-10 -110 -10 -35 0 -51 -7 -86 -38 -40 -35 -43 -41 -49 -102 -5 -58 -3 -67 16
-84 18 -17 35 -19 104 -18 45 1 118 7 162 12 44 6 86 11 93 12 6 1 12 5 12 10
0 5 4 7 9 4 10 -6 180 -19 220 -17 40 2 173 72 167 87 -3 8 -37 66 -76 130
-154 255 -171 273 -207 217z"/>
<path d="M2345 12140 c-3 -5 1 -10 10 -10 9 0 13 5 10 10 -3 6 -8 10 -10 10
-2 0 -7 -4 -10 -10z"/>
<path d="M10433 12109 c-22 -14 -33 -29 -33 -44 0 -34 16 -39 53 -18 24 15 32
26 32 48 0 36 -12 40 -52 14z"/>
<path d="M2400 12072 c0 -5 7 -16 16 -23 14 -12 16 -11 13 5 -4 20 -29 35 -29
18z"/>
<path d="M2930 11875 c-10 -12 -10 -19 -2 -27 14 -14 17 -11 26 20 8 25 -5 29
-24 7z"/>
<path d="M2445 11810 c4 -6 11 -8 16 -5 14 9 11 15 -7 15 -8 0 -12 -5 -9 -10z"/>
<path d="M12500 11793 c0 -19 -179 -62 -231 -56 -21 3 -40 0 -43 -6 -4 -6 -15
-11 -25 -11 -23 0 -68 -48 -76 -81 -8 -31 24 -89 63 -116 24 -16 46 -18 186
-16 183 3 290 22 308 56 13 24 4 128 -14 160 -7 12 -11 25 -10 28 1 4 -7 5
-18 2 -13 -3 -23 4 -34 24 -8 15 -15 22 -16 16 0 -9 -7 -10 -25 -3 -16 6 -26
6 -31 -1 -4 -6 -11 -6 -20 2 -8 6 -14 7 -14 2z"/>
<path d="M7412 11779 c2 -6 8 -10 13 -10 5 0 11 4 13 10 2 6 -4 11 -13 11 -9
0 -15 -5 -13 -11z"/>
<path d="M10788 11718 c-23 -17 -38 -61 -38 -107 0 -20 -5 -42 -12 -49 -7 -7
-9 -12 -5 -12 4 0 0 -14 -8 -31 -18 -34 -13 -80 11 -100 8 -6 14 -22 14 -36 0
-15 8 -27 23 -32 31 -12 35 -7 42 47 8 60 23 127 41 174 17 47 10 84 -24 126
-23 28 -29 31 -44 20z"/>
<path d="M2910 11640 c0 -5 5 -10 10 -10 6 0 10 5 10 10 0 6 -4 10 -10 10 -5
0 -10 -4 -10 -10z"/>
<path d="M2990 11640 c0 -5 5 -10 10 -10 6 0 10 5 10 10 0 6 -4 10 -10 10 -5
0 -10 -4 -10 -10z"/>
<path d="M2960 11590 c0 -5 7 -10 15 -10 8 0 15 5 15 10 0 6 -7 10 -15 10 -8
0 -15 -4 -15 -10z"/>
<path d="M2466 11452 c-5 -5 0 -37 10 -71 7 -23 34 8 34 39 0 19 -6 29 -19 33
-11 3 -22 2 -25 -1z"/>
<path d="M2367 11350 c3 -11 13 -20 22 -20 9 0 22 9 29 20 11 19 10 20 -22 20
-29 0 -33 -3 -29 -20z"/>
<path d="M2317 11323 c-3 -5 -1 -17 4 -28 7 -17 8 -17 8 8 1 27 -4 34 -12 20z"/>
<path d="M2430 11260 c0 -5 7 -10 16 -10 8 0 12 5 9 10 -3 6 -10 10 -16 10 -5
0 -9 -4 -9 -10z"/>
<path d="M2350 11236 c0 -9 7 -12 20 -9 11 3 20 9 20 14 0 5 -9 9 -20 9 -11 0
-20 -6 -20 -14z"/>
<path d="M10781 11233 c-7 -3 -22 -14 -32 -24 -21 -21 -106 -62 -154 -75 -16
-5 -75 -9 -130 -9 -55 -1 -113 -5 -130 -9 -61 -17 -71 -66 -29 -142 28 -50 27
-87 -3 -151 -21 -45 -14 -73 26 -95 l34 -19 36 29 c40 32 50 71 30 109 -9 17
-10 29 -1 46 6 12 13 31 17 42 16 54 96 104 146 92 45 -11 94 -69 129 -150 36
-82 58 -100 98 -78 17 9 21 25 27 107 10 124 -1 260 -23 302 -17 33 -18 34
-41 25z"/>
<path d="M2438 11203 c6 -2 18 -2 25 0 6 3 1 5 -13 5 -14 0 -19 -2 -12 -5z"/>
<path d="M8987 11115 c-17 -9 -53 -14 -93 -13 -52 1 -67 -3 -78 -17 -7 -10
-18 -15 -24 -11 -18 11 -57 -34 -72 -81 -9 -29 -10 -57 -5 -90 9 -48 9 -68 5
-211 -3 -87 20 -184 51 -218 17 -18 24 -19 68 -11 42 9 53 8 82 -10 104 -63
264 -81 343 -39 74 40 81 45 92 78 9 27 16 33 39 33 27 0 30 4 50 80 12 44 34
118 47 165 35 117 44 243 20 290 -14 28 -23 35 -47 35 -17 1 -39 4 -50 9 -75
30 -82 30 -231 10 -34 -4 -54 -3 -58 5 -10 16 -106 14 -139 -4z"/>
<path d="M12678 11119 c-10 -5 -51 -18 -90 -29 -109 -28 -148 -79 -134 -175 9
-59 54 -105 101 -105 19 0 49 -9 67 -20 33 -19 34 -19 64 -1 25 15 33 31 48
87 30 118 30 118 16 109 -8 -5 -11 -4 -6 3 6 11 -27 119 -41 133 -5 4 -16 3
-25 -2z"/>
<path d="M2420 11085 c-8 -9 -8 -15 -2 -15 12 0 26 19 19 26 -2 2 -10 -2 -17
-11z"/>
<path d="M2494 10865 c-17 -13 -17 -14 -1 -15 9 0 17 4 17 9 0 5 8 12 18 14
13 4 14 5 1 6 -8 0 -24 -6 -35 -14z"/>
<path d="M3190 10685 c0 -8 5 -15 10 -15 6 0 10 7 10 15 0 8 -4 15 -10 15 -5
0 -10 -7 -10 -15z"/>
<path d="M12673 10592 c-13 -2 -23 -8 -23 -13 0 -5 -7 -9 -15 -9 -20 0 -63
-90 -56 -115 10 -34 34 -65 73 -92 32 -22 40 -24 54 -13 37 31 54 92 35 128
-5 9 -15 38 -22 65 -13 53 -15 55 -46 49z"/>
<path d="M12160 10483 c-25 -7 -53 -22 -62 -34 -10 -12 -24 -19 -33 -16 -8 4
-21 0 -29 -8 -8 -8 -26 -15 -40 -15 -33 0 -36 -30 -3 -31 12 0 33 -2 47 -5 50
-8 323 -3 339 6 9 5 12 10 6 10 -5 0 3 11 20 24 l29 23 -29 26 c-17 15 -41 27
-55 28 -86 7 -151 4 -190 -8z"/>
<path d="M11701 10414 c0 -11 3 -14 6 -6 3 7 2 16 -1 19 -3 4 -6 -2 -5 -13z"/>
<path d="M11735 10420 c-10 -16 4 -30 32 -30 21 0 24 -2 13 -15 -7 -8 -8 -15
-2 -15 5 0 15 7 22 15 7 8 23 15 36 15 27 0 39 14 21 27 -17 13 -114 16 -122
3z"/>
<path d="M11660 10403 c1 -18 18 -35 24 -24 4 6 2 11 -4 11 -6 0 -8 5 -5 10 3
6 1 10 -4 10 -6 0 -11 -3 -11 -7z"/>
<path d="M13305 10322 c-11 -2 -28 -11 -37 -19 -21 -19 -42 -105 -34 -139 10
-39 65 -84 102 -84 52 0 97 68 84 125 -1 6 -4 24 -7 40 -9 54 -55 87 -108 77z"/>
<path d="M14630 10176 c-58 -15 -114 -57 -134 -101 -15 -31 -15 -40 0 -117 28
-139 19 -201 -30 -210 -14 -3 -23 -2 -21 2 3 4 -9 10 -25 14 -17 3 -47 23 -68
43 -44 44 -93 83 -105 83 -5 0 -15 -7 -23 -15 -29 -28 -44 -84 -44 -160 0 -74
1 -76 41 -120 23 -25 45 -42 49 -40 5 3 12 -5 16 -17 4 -13 11 -26 16 -29 15
-9 29 -199 16 -199 -4 0 -8 -18 -8 -41 0 -24 -4 -38 -10 -34 -5 3 -22 -5 -36
-19 -35 -32 -26 -56 19 -56 19 0 59 -5 88 -10 72 -14 238 -15 269 -3 43 18
107 86 120 128 19 62 27 369 14 540 -5 73 -3 82 15 99 12 11 21 28 21 38 0 23
-48 195 -61 220 -11 21 -52 23 -119 4z"/>
<path d="M2008 10018 c8 -8 17 -8 34 0 22 10 21 11 -11 11 -27 1 -32 -2 -23
-11z"/>
<path d="M2040 9932 c0 -21 13 -42 25 -42 13 0 41 28 34 34 -11 11 -59 17 -59
8z"/>
<path d="M2140 9919 c0 -5 5 -7 10 -4 6 3 10 8 10 11 0 2 -4 4 -10 4 -5 0 -10
-5 -10 -11z"/>
<path d="M4415 9840 c-3 -5 -19 -10 -35 -10 -16 0 -32 -4 -35 -10 -3 -5 -17
-10 -31 -10 -13 0 -24 -5 -24 -11 0 -6 -7 -8 -16 -5 -10 4 -13 2 -8 -6 5 -8 2
-9 -10 -5 -11 5 -24 -2 -39 -19 -15 -17 -33 -26 -59 -27 -22 -1 -38 -7 -38
-14 0 -7 -7 -10 -16 -6 -8 3 -32 -1 -52 -10 -20 -8 -51 -21 -69 -28 -32 -13
-46 -37 -34 -57 11 -19 57 -24 72 -9 8 8 32 20 54 28 21 8 51 27 67 42 15 16
32 26 38 22 5 -3 10 -1 10 4 0 6 18 11 40 11 28 0 45 6 57 20 10 11 25 20 35
20 10 0 27 9 38 20 11 11 26 20 34 20 8 0 18 5 21 10 4 6 10 8 15 5 15 -9 20
12 6 24 -10 8 -16 9 -21 1z"/>
<path d="M12124 9806 c-86 -14 -177 -44 -169 -56 2 -4 -11 -5 -30 -3 -27 3
-35 0 -35 -12 0 -11 6 -14 24 -9 13 3 27 1 30 -5 4 -6 16 -11 27 -11 10 0 19
-4 19 -9 0 -4 11 -24 24 -44 13 -19 22 -37 20 -40 -11 -10 87 -83 133 -100 55
-20 76 -15 138 29 18 12 48 22 75 23 25 1 53 4 63 7 11 3 39 -9 71 -30 30 -20
63 -36 73 -36 21 1 108 79 149 135 16 22 36 47 44 56 19 20 50 31 50 18 0 -6
21 -9 53 -7 48 3 52 5 52 28 0 24 -2 25 -75 28 -41 2 -79 7 -84 12 -6 6 -26
10 -46 10 -19 0 -51 5 -70 10 -19 6 -62 10 -95 10 -33 0 -105 -1 -160 -2 -55
-1 -122 1 -150 5 -27 3 -86 0 -131 -7z"/>
<path d="M9777 9775 c-77 -13 -121 -40 -125 -78 -3 -26 28 -98 56 -129 8 -10
11 -18 6 -18 -5 0 9 -9 32 -19 23 -10 44 -26 47 -34 3 -9 17 -23 32 -33 21
-14 30 -14 55 -4 17 7 30 16 30 21 0 5 21 33 48 63 26 30 58 69 71 86 l24 31
34 -33 c19 -18 43 -50 54 -70 11 -21 24 -38 29 -38 5 0 11 -8 15 -17 3 -10 21
-35 39 -57 30 -35 36 -38 69 -32 29 5 34 10 30 26 -5 18 0 20 36 20 30 0 41 4
41 15 0 8 7 15 15 15 8 0 15 -9 15 -20 0 -13 5 -18 15 -14 16 7 65 -33 65 -53
0 -7 13 -9 40 -6 26 4 40 2 40 -6 0 -7 23 -11 65 -11 58 0 66 3 81 25 9 14 14
31 11 40 -5 12 8 41 56 120 7 11 15 22 18 25 11 9 39 69 39 83 0 8 7 20 15 27
19 16 16 42 -5 46 -8 2 -34 10 -57 18 -51 19 -54 19 -410 14 -277 -3 -282 -4
-306 -26 -26 -25 -39 -24 -177 15 -30 8 -59 16 -65 17 -5 1 -41 -3 -78 -9z"/>
<path d="M8965 9728 c-4 -15 10 -58 39 -121 24 -54 47 -101 50 -104 3 -4 6
-14 6 -23 0 -8 14 -24 30 -33 17 -10 30 -22 30 -28 0 -5 7 -9 15 -9 17 0 21
16 5 22 -5 2 -12 26 -15 55 -9 93 -22 132 -54 162 -17 16 -31 34 -31 39 0 15
-45 62 -58 62 -7 0 -14 -10 -17 -22z"/>
<path d="M13280 9420 c0 -5 5 -10 10 -10 6 0 10 5 10 10 0 6 -4 10 -10 10 -5
0 -10 -4 -10 -10z"/>
<path d="M13482 9073 c-6 -2 -10 -9 -6 -14 3 -5 0 -9 -7 -9 -7 0 -9 -8 -5 -22
4 -13 8 -28 10 -35 3 -18 7 -20 59 -26 38 -5 47 -4 47 8 0 8 5 15 10 15 6 0 4
13 -5 30 -9 17 -22 30 -30 30 -8 0 -15 5 -15 11 0 6 -9 9 -20 6 -11 -3 -18 -1
-14 4 6 10 -3 11 -24 2z"/>
<path d="M2910 8980 c0 -5 -8 -10 -17 -10 -14 0 -15 -2 -4 -12 11 -10 14 -10
18 0 3 6 11 12 19 12 8 0 14 5 14 10 0 6 -7 10 -15 10 -8 0 -15 -4 -15 -10z"/>
<path d="M2935 8930 c3 -5 10 -10 16 -10 5 0 9 5 9 10 0 6 -7 10 -16 10 -8 0
-12 -4 -9 -10z"/>
<path d="M3110 8900 c0 -5 5 -10 10 -10 6 0 10 5 10 10 0 6 -4 10 -10 10 -5 0
-10 -4 -10 -10z"/>
<path d="M14978 8874 c-53 -28 -79 -103 -59 -173 8 -31 95 -93 124 -89 20 3
22 8 20 58 -2 30 -8 92 -14 138 -12 89 -17 94 -71 66z"/>
<path d="M14065 8790 c3 -5 8 -10 11 -10 2 0 4 5 4 10 0 6 -5 10 -11 10 -5 0
-7 -4 -4 -10z"/>
<path d="M14030 8763 c0 -5 -10 -13 -22 -18 -13 -6 -25 -21 -26 -34 -5 -29
-20 -46 -52 -56 -38 -11 -70 -56 -58 -78 14 -27 2 -50 -22 -42 -15 5 -20 2
-20 -13 0 -11 -9 -22 -20 -25 -11 -3 -20 -12 -20 -21 0 -9 -4 -16 -10 -16 -5
0 -10 -11 -10 -25 0 -18 -5 -25 -20 -25 -11 0 -20 -4 -20 -10 0 -5 7 -10 15
-10 13 0 14 -4 5 -20 -6 -11 -21 -20 -33 -20 -13 0 -28 -5 -35 -12 -9 -9 -3
-17 26 -34 20 -13 47 -24 58 -24 12 0 27 -7 34 -15 7 -8 21 -15 31 -15 21 0
90 -16 156 -35 75 -22 182 20 168 65 -4 13 -9 34 -11 49 -2 14 -9 60 -15 101
-6 41 -11 90 -10 108 0 17 -4 32 -9 32 -6 0 -10 15 -10 33 -1 17 -6 61 -13 97
-10 55 -15 65 -35 68 -12 2 -22 0 -22 -5z"/>
<path d="M3155 8750 c11 -5 14 -9 8 -9 -7 -1 -13 -6 -13 -11 0 -15 27 -23 47
-16 14 6 14 9 -5 26 -12 11 -29 20 -39 19 -16 0 -16 -1 2 -9z"/>
<path d="M7577 8660 c-6 -24 8 -36 17 -14 8 22 7 34 -3 34 -5 0 -11 -9 -14
-20z"/>
<path d="M12497 8575 c-5 -12 28 -192 45 -248 6 -21 15 -40 20 -43 4 -3 36
-10 70 -15 35 -6 64 -14 66 -19 2 -5 33 -18 70 -30 37 -12 82 -29 101 -37 41
-19 109 -12 170 18 69 33 90 113 51 186 -11 21 -20 43 -20 50 0 6 -17 25 -37
41 -28 21 -54 31 -96 36 -31 3 -74 12 -95 20 -83 31 -338 61 -345 41z"/>
<path d="M2335 8446 c-19 -14 -19 -15 -2 -21 22 -9 50 2 45 17 -6 18 -22 20
-43 4z"/>
<path d="M14996 8410 c-42 -20 -155 -19 -209 2 -34 13 -148 4 -176 -14 -12 -7
-33 -38 -47 -68 -14 -30 -29 -63 -35 -72 -15 -28 -11 -62 10 -79 30 -27 115
-42 186 -34 61 6 68 4 124 -26 98 -54 119 -133 67 -260 -25 -64 -33 -123 -18
-145 14 -22 58 -38 134 -49 l78 -12 6 35 c8 40 -3 417 -17 601 -11 151 -19
160 -103 121z"/>
<path d="M2320 8380 c20 -13 33 -13 25 0 -3 6 -14 10 -23 10 -15 0 -15 -2 -2
-10z"/>
<path d="M2165 8330 c-3 -5 1 -10 9 -10 9 0 16 5 16 10 0 6 -4 10 -9 10 -6 0
-13 -4 -16 -10z"/>
<path d="M2030 8150 c0 -11 5 -20 10 -20 6 0 10 9 10 20 0 11 -4 20 -10 20 -5
0 -10 -9 -10 -20z"/>
<path d="M13852 7815 c-18 -8 -35 -22 -38 -32 -3 -10 -10 -26 -15 -35 -6 -13
-1 -25 24 -51 31 -33 34 -34 85 -27 63 8 100 39 108 92 6 34 4 36 -35 51 -50
20 -85 21 -129 2z"/>
<path d="M14232 7818 c-48 -48 49 -142 115 -113 10 5 23 9 28 9 6 1 21 12 34
25 27 27 30 22 -53 69 -44 24 -105 29 -124 10z"/>
<path d="M1740 7670 c0 -5 5 -10 10 -10 6 0 10 5 10 10 0 6 -4 10 -10 10 -5 0
-10 -4 -10 -10z"/>
<path d="M2025 7630 c-3 -5 -2 -10 3 -10 5 0 13 -10 16 -22 l7 -23 10 24 c7
18 6 27 -3 33 -17 10 -26 10 -33 -2z"/>
<path d="M12207 7422 c-13 -14 -17 -38 -17 -103 0 -113 5 -129 41 -129 36 0
55 39 58 123 2 50 -2 64 -24 93 -30 39 -36 41 -58 16z"/>
<path d="M12855 7401 c-35 -15 -52 -66 -62 -189 -7 -86 1 -109 53 -159 45 -43
78 -54 87 -30 3 7 6 5 6 -5 1 -12 9 -18 26 -18 16 0 25 -6 25 -15 0 -8 9 -15
20 -15 17 0 19 4 13 28 -4 15 -6 34 -5 42 2 8 4 67 5 130 3 150 -14 200 -77
224 -46 18 -61 19 -91 7z"/>
<path d="M1950 7205 c0 -20 5 -25 25 -25 27 0 33 18 13 38 -20 20 -38 14 -38
-13z"/>
<path d="M1590 7136 c0 -31 12 -47 26 -35 10 8 11 16 3 30 -11 22 -29 25 -29
5z"/>
<path d="M1650 7110 c0 -13 7 -20 20 -20 13 0 20 7 20 20 0 13 -7 20 -20 20
-13 0 -20 -7 -20 -20z"/>
<path d="M1980 7109 c0 -5 5 -7 10 -4 6 3 10 8 10 11 0 2 -4 4 -10 4 -5 0 -10
-5 -10 -11z"/>
<path d="M1950 7090 c0 -5 -3 -15 -6 -24 -5 -12 0 -16 19 -16 34 0 40 23 11
37 -13 6 -24 7 -24 3z"/>
<path d="M1630 7036 c0 -9 5 -16 10 -16 6 0 10 4 10 9 0 6 -4 13 -10 16 -5 3
-10 -1 -10 -9z"/>
<path d="M13279 7030 c-52 -28 -74 -64 -59 -100 6 -16 24 -33 38 -39 69 -29
162 -148 162 -207 0 -15 6 -24 15 -24 8 0 15 -6 15 -14 0 -23 27 -26 46 -5 9
10 23 19 31 19 8 0 12 4 9 9 -9 14 16 73 41 99 28 28 31 81 6 120 -10 15 -48
57 -84 95 l-66 67 -59 0 c-38 -1 -72 -8 -95 -20z"/>
<path d="M1571 7013 c1 -10 4 -29 8 -42 6 -21 8 -22 19 -8 8 9 12 26 10 39 -4
28 -38 38 -37 11z"/>
<path d="M1790 7014 c0 -8 5 -12 10 -9 6 3 10 10 10 16 0 5 -4 9 -10 9 -5 0
-10 -7 -10 -16z"/>
<path d="M1675 7000 c-3 -5 -15 -10 -26 -10 -10 0 -19 -4 -19 -9 0 -11 49 -9
68 2 6 5 12 12 12 18 0 12 -27 12 -35 -1z"/>
<path d="M13979 6942 c-45 -21 -70 -42 -64 -52 3 -4 -2 -13 -10 -20 -8 -7 -13
-15 -11 -19 9 -14 7 -129 -3 -190 -9 -60 -8 -67 16 -115 27 -53 35 -61 94
-100 35 -23 170 -52 189 -41 5 3 46 1 92 -4 146 -17 259 -24 410 -23 119 1
162 5 225 22 43 12 81 25 85 29 4 3 19 91 34 194 25 177 26 189 10 205 -14 14
-41 17 -171 18 -100 1 -160 5 -169 13 -19 16 -204 48 -376 66 -80 8 -172 19
-205 25 -81 13 -104 12 -146 -8z"/>
<path d="M1550 6864 c0 -6 -18 -17 -40 -24 -36 -12 -55 -30 -31 -30 5 0 11
-10 14 -21 5 -18 11 -20 34 -14 31 7 45 23 38 43 -3 7 6 12 23 13 20 1 22 2 7
6 -11 3 -26 12 -32 21 -7 9 -13 11 -13 6z"/>
<path d="M1635 6817 c-4 -10 -5 -21 -1 -24 10 -10 18 4 13 24 -4 17 -4 17 -12
0z"/>
<path d="M1324 6745 c-7 -19 -14 -38 -14 -44 0 -5 -9 -11 -20 -14 -31 -8 -24
-36 15 -54 46 -22 65 -8 48 37 -9 24 -9 30 2 30 20 0 28 17 21 44 -10 40 -35
40 -52 1z"/>
<path d="M1470 6680 c0 -5 7 -10 15 -10 8 0 18 0 22 -1 4 0 9 4 11 10 2 6 -8
11 -22 11 -14 0 -26 -4 -26 -10z"/>
<path d="M1410 6630 c0 -15 5 -20 18 -18 9 2 17 10 17 18 0 8 -8 16 -17 18
-13 2 -18 -3 -18 -18z"/>
<path d="M1384 6574 c3 -9 6 -20 6 -26 0 -6 6 -6 15 2 22 18 18 40 -6 40 -15
0 -19 -4 -15 -16z"/>
<path d="M11052 6554 c-39 -27 -45 -60 -21 -109 28 -57 66 -67 106 -28 14 15
30 45 33 65 7 34 4 41 -19 58 -41 28 -73 33 -99 14z"/>
<path d="M1327 6523 c-13 -14 -17 -14 -17 -3 0 11 -3 11 -12 2 -8 -8 -8 -15 2
-27 12 -14 11 -18 -1 -26 -9 -6 7 -9 48 -9 63 0 77 7 68 32 -5 12 -55 48 -67
48 -2 0 -11 -8 -21 -17z"/>
<path d="M13186 6515 c-22 -7 -52 -23 -67 -34 -16 -12 -32 -21 -37 -21 -14 0
-35 -47 -29 -64 16 -41 163 -68 200 -38 21 18 49 104 45 139 -3 24 -8 28 -38
30 -19 2 -53 -4 -74 -12z"/>
<path d="M1070 6311 c0 -26 5 -41 16 -45 27 -10 36 4 20 30 -9 13 -16 30 -16
39 0 8 -4 15 -10 15 -5 0 -10 -18 -10 -39z"/>
<path d="M1130 6340 c0 -5 5 -10 10 -10 6 0 10 5 10 10 0 6 -4 10 -10 10 -5 0
-10 -4 -10 -10z"/>
<path d="M990 6054 c0 -8 5 -12 10 -9 6 4 8 11 5 16 -9 14 -15 11 -15 -7z"/>
<path d="M11885 6041 c-125 -22 -190 -103 -155 -195 15 -40 96 -74 195 -82
104 -8 142 -1 184 34 33 28 58 96 42 117 -5 5 -12 24 -16 42 -7 37 -45 63
-117 81 -50 13 -71 13 -133 3z"/>
<path d="M10715 6018 c-21 -5 -49 -17 -60 -28 -12 -11 -27 -20 -33 -20 -7 0
-15 -7 -18 -15 -4 -8 -11 -15 -17 -15 -18 0 -127 -118 -127 -137 0 -10 9 -33
20 -50 18 -29 25 -33 65 -33 56 0 99 18 145 60 19 17 40 35 46 38 21 13 64 99
70 139 8 57 -21 76 -91 61z"/>
<path d="M12301 5792 c-25 -2 -56 -12 -69 -23 -14 -10 -33 -19 -43 -19 -29 0
-49 -11 -49 -27 0 -14 -145 -160 -230 -232 -34 -28 -40 -39 -40 -73 0 -82 39
-107 176 -115 92 -6 96 -5 159 27 35 18 63 36 62 40 -1 5 14 28 35 53 31 37
41 43 66 39 23 -3 34 1 44 17 7 12 18 21 25 21 7 0 13 8 13 19 0 10 12 27 26
37 14 10 33 35 43 54 9 19 23 45 31 57 10 16 12 31 4 59 -8 34 -14 40 -54 52
-48 14 -128 20 -199 14z"/>
<path d="M740 5610 c0 -5 5 -10 11 -10 5 0 7 5 4 10 -3 6 -8 10 -11 10 -2 0
-4 -4 -4 -10z"/>
<path d="M680 5490 c0 -5 4 -10 9 -10 6 0 13 5 16 10 3 6 -1 10 -9 10 -9 0
-16 -4 -16 -10z"/>
<path d="M1030 5471 c0 -6 5 -13 10 -16 6 -3 10 1 10 9 0 9 -4 16 -10 16 -5 0
-10 -4 -10 -9z"/>
<path d="M1275 5401 c-3 -5 -1 -12 5 -16 5 -3 10 1 10 9 0 18 -6 21 -15 7z"/>
<path d="M1036 5238 c-9 -37 -7 -48 10 -48 14 0 14 3 3 16 -10 13 -10 17 2 24
10 7 11 12 3 20 -8 8 -13 5 -18 -12z"/>
<path d="M10173 5107 c-13 -7 -36 -33 -53 -57 -16 -25 -37 -56 -47 -70 -25
-37 -107 -135 -115 -138 -5 -2 -8 -9 -8 -16 0 -7 -9 -21 -21 -32 -12 -10 -37
-43 -56 -72 -19 -28 -41 -56 -49 -60 -8 -5 -33 -30 -54 -56 -32 -38 -40 -56
-40 -87 0 -79 44 -109 159 -109 128 1 232 23 298 64 l61 38 7 71 c3 40 11 106
16 147 6 41 12 116 14 165 3 50 9 105 14 123 11 35 0 80 -22 94 -18 12 -79 9
-104 -5z"/>
<path d="M12055 4962 c-3 -8 -3 -18 1 -23 7 -12 34 -11 34 1 0 16 43 12 70 -7
14 -10 33 -16 43 -15 11 2 17 -3 17 -17 0 -14 8 -23 24 -27 23 -5 25 -10 24
-62 -2 -60 9 -85 63 -143 19 -21 40 -31 72 -35 40 -6 46 -4 58 17 28 53 5 122
-47 135 -13 4 -29 15 -35 25 -5 11 -15 19 -22 19 -7 0 -21 18 -31 40 -12 24
-22 36 -26 29 -6 -8 -9 -8 -14 0 -4 6 -12 9 -17 6 -5 -4 -9 1 -9 9 0 10 9 16
21 16 19 0 20 2 8 16 -9 11 -23 14 -45 11 -18 -3 -34 -2 -36 3 -2 4 -36 9 -75
12 -55 3 -74 0 -78 -10z"/>
<path d="M13120 4922 c0 -18 15 -22 46 -12 16 4 22 9 14 9 -8 1 -25 4 -37 7
-13 4 -23 2 -23 -4z"/>
<path d="M10427 3806 c-4 -10 1 -16 14 -18 20 -3 20 -3 0 -25 -13 -13 -18 -28
-14 -39 4 -11 -1 -22 -12 -30 -21 -15 -14 -30 10 -21 8 4 15 15 15 26 0 25 12
32 30 20 10 -6 11 -9 3 -9 -7 0 -13 -4 -13 -10 0 -17 25 -11 40 10 8 11 23 20
33 20 16 0 18 5 13 28 -4 15 -16 35 -28 45 -25 21 -84 23 -91 3z"/>
<path d="M12745 3722 c-6 -6 -69 -13 -165 -17 -142 -7 -180 -18 -180 -51 0 -8
-17 -22 -37 -32 -21 -9 -42 -23 -46 -29 -4 -7 -14 -13 -20 -13 -7 0 -33 -18
-57 -40 -74 -66 -130 -90 -218 -92 -43 -1 -81 -4 -86 -6 -5 -3 -79 -6 -165 -8
-216 -4 -275 -11 -297 -35 -14 -15 -15 -24 -6 -43 14 -31 33 -35 232 -50 158
-12 170 -15 182 -44 6 -15 10 -33 9 -39 -4 -27 21 -51 85 -84 93 -47 130 -85
144 -151 7 -29 22 -66 35 -82 22 -28 26 -28 151 -36 71 -4 183 -17 249 -28
208 -35 196 -35 256 -4 49 24 56 33 78 87 25 60 25 62 23 372 -2 173 -7 324
-12 339 -15 37 -68 78 -112 85 -21 3 -40 3 -43 1z m-94 -185 c10 -6 28 -33 39
-59 18 -43 19 -51 6 -82 -8 -18 -18 -36 -23 -39 -4 -3 -61 -8 -127 -12 -111
-6 -119 -5 -140 14 -29 27 -34 102 -10 139 40 62 41 63 143 56 51 -3 102 -11
112 -17z"/>
<path d="M10247 3603 c-69 -70 -130 -155 -147 -207 -14 -44 -6 -118 17 -153
18 -27 82 -47 123 -38 15 3 49 26 75 51 26 24 58 47 71 50 13 3 24 10 24 15 0
19 44 8 84 -22 34 -24 53 -30 95 -31 48 0 55 3 86 38 30 34 34 44 37 108 3 77
-7 119 -40 161 -12 15 -22 36 -22 46 0 12 -7 19 -19 19 -11 0 -23 5 -26 10 -9
15 -86 0 -109 -22 -23 -21 -81 -24 -93 -5 -10 15 -57 37 -82 37 -9 0 -43 -26
-74 -57z"/>
<path d="M11184 2720 c-23 -10 -52 -33 -65 -51 -34 -48 -34 -187 0 -274 17
-44 24 -88 28 -165 4 -88 8 -109 26 -127 11 -13 25 -23 31 -23 17 0 83 64 90
88 4 12 15 22 25 22 10 0 30 9 44 20 l25 20 16 -35 c30 -62 86 -86 86 -36 0
16 7 34 15 41 9 7 14 19 11 27 -13 33 65 69 100 45 6 -4 17 -32 23 -62 18 -81
39 -125 73 -150 27 -20 31 -20 47 -6 10 9 25 16 33 16 9 0 25 19 36 43 16 34
21 67 23 177 5 265 4 299 -8 312 -7 6 -13 19 -13 28 0 23 -38 55 -80 68 -46
15 -210 30 -385 36 -122 4 -145 2 -181 -14z"/>
<path d="M11270 1281 c-32 -26 -35 -33 -35 -82 0 -69 10 -146 24 -182 l11 -28
63 34 c57 31 160 94 325 199 34 22 62 45 62 50 0 5 -14 15 -32 23 -30 12 -37
11 -93 -17 -109 -56 -117 -55 -196 5 -48 35 -86 35 -129 -2z"/>
</g>
</svg>
